<svg width="24" height="25" viewBox="0 0 24 25" fill="none" xmlns="http://www.w3.org/2000/svg">
<rect y="0.5" width="24" height="24" rx="6" fill="#81F4D2"/>
<path fill-rule="evenodd" clip-rule="evenodd" d="M6.98047 13.8862C6.98047 12.1325 6.98047 11.2556 7.32183 10.5857C7.6221 9.99654 8.10122 9.5175 8.69053 9.21729C9.36049 8.87598 10.2375 8.87598 11.9915 8.87598H14.4971C16.2511 8.87598 17.1282 8.87598 17.7981 9.21729C18.3874 9.5175 18.8665 9.99654 19.1668 10.5857C19.5082 11.2556 19.5082 12.1325 19.5082 13.8862V14.6019C19.5082 16.3557 19.5082 17.2326 19.1668 17.9024C18.8665 18.4916 18.3874 18.9706 17.7981 19.2709C17.1282 19.6121 16.2511 19.6121 14.4971 19.6121H9.84394C8.84164 19.6121 8.34047 19.6121 7.95765 19.4172C7.6209 19.2456 7.34712 18.9719 7.17553 18.6351C6.98047 18.2524 6.98047 17.7513 6.98047 16.7491V13.8862ZM11.4546 14.2441C11.4546 13.75 11.8553 13.3494 12.3495 13.3494C12.8437 13.3494 13.2443 13.75 13.2443 14.2441V16.0334C13.2443 16.5275 12.8437 16.9281 12.3495 16.9281C11.8553 16.9281 11.4546 16.5275 11.4546 16.0334V14.2441ZM15.9289 13.3494C15.4346 13.3494 15.034 13.75 15.034 14.2441V16.0334C15.034 16.5275 15.4346 16.9281 15.9289 16.9281C16.423 16.9281 16.8237 16.5275 16.8237 16.0334V14.2441C16.8237 13.75 16.423 13.3494 15.9289 13.3494Z" fill="#09161D"/>
<path fill-rule="evenodd" clip-rule="evenodd" d="M10.1058 6.17206C10.1668 6.6624 9.81866 7.10933 9.32823 7.17031C9.05789 7.20392 8.84069 7.24965 8.64845 7.30955C7.10427 7.79065 5.89508 8.99963 5.41389 10.5436C5.35398 10.7358 5.30824 10.9529 5.27462 11.2232C5.21364 11.7136 4.76662 12.0616 4.2762 12.0007C3.78577 11.9397 3.43764 11.4927 3.49863 11.0024C3.54243 10.6502 3.60726 10.3256 3.70525 10.0112C4.36142 7.90588 6.01031 6.25726 8.11601 5.60121C8.43048 5.50324 8.75515 5.43842 9.10737 5.39463C9.5978 5.33365 10.0448 5.68172 10.1058 6.17206Z" fill="#09161D"/>
</svg>
