<svg viewBox="0 0 439 331" fill="none" xmlns="http://www.w3.org/2000/svg">
<path opacity="0.24" d="M243.312 0.121041C179.989 1.90635 119.841 26.5526 61.3197 50.8282C44.1768 57.9468 25.5216 66.4723 17.884 83.3949C5.4749 110.901 29.174 141.682 27.586 171.798C26.5878 190.165 16.2053 206.77 13.3166 224.933C8.20476 256.895 27.9414 289.053 55.2853 306.323C82.6292 323.594 116.098 328.201 148.418 328.178C180.738 328.156 213.012 323.912 245.309 325.152C281.81 326.59 318.569 335.04 354.518 328.549C390.467 322.058 426.636 293.902 425.426 257.379C424.67 234.435 409.546 213.851 408.624 190.914C407.346 158.612 429.797 131.417 426.13 98.2598C423.679 75.9813 412.889 48.5285 394.906 33.9586C360.311 5.9838 284.638 -1.04395 243.312 0.121041Z" fill="#2C8A9F"/>
<path d="M258.368 237.771L210.403 210.068L247.933 188.395L221.02 172.849L197.079 186.678L123.721 144.307L167.285 119.146L169.017 120.145L127.176 144.315L197.064 184.681L221.005 170.852L251.389 188.403L213.859 210.076L258.353 235.774L314.001 203.638L345.035 221.559L319.801 236.137L349.316 253.188L362.693 245.464L364.432 246.463L349.331 255.185L316.346 236.129L341.58 221.559L314.009 205.635L258.368 237.771Z" fill="#2C8A9F"/>
<path d="M323.355 292.873L263.405 258.249L302.227 235.827L248.727 204.924L211.832 223.98L157.409 192.541L182.318 178.152L157.197 163.643L138.973 174.173L137.234 173.167L157.182 161.646L185.774 178.16L160.865 192.548L211.915 222.036L248.81 202.98L305.683 235.834L266.86 258.249L325.08 291.882L323.355 292.873Z" fill="#2C8A9F"/>
<path d="M87.0908 192.291L56.9187 174.869L58.6428 173.87L87.0756 190.294L111.826 175.996L248.561 254.973L280.109 236.757L316.24 257.629L336.249 246.069L337.98 247.076L316.255 259.626L280.116 238.754L248.568 256.97L111.841 177.993L87.0908 192.291Z" fill="#2C8A9F"/>
<path d="M139.82 151.683L138.088 150.677L162.725 136.447L204.233 160.42L226.071 147.81L300.677 190.899L298.953 191.89L226.086 149.807L204.248 162.417L162.74 138.444L139.82 151.683Z" fill="#2C8A9F"/>
<path opacity="0.24" d="M211.809 202.753C211.93 203.398 211.93 204.06 211.809 204.705C211.325 206.218 209.306 206.52 207.696 206.551C198.508 206.721 189.377 208.03 180.511 210.447C178.386 211.022 176.11 211.778 174.847 213.594C173.584 215.409 174.143 218.533 176.299 218.995C173.208 219.37 170.165 220.075 167.224 221.098C166.437 221.28 165.744 221.742 165.273 222.399C164.343 224.078 166.521 225.765 168.351 226.348C175.679 228.716 183.475 228.806 191.211 228.882C194.871 228.882 199.173 228.625 201.177 225.554C201.805 224.585 202.153 223.382 203.038 222.634C203.659 222.177 204.367 221.85 205.117 221.673L216.732 218.11C218.132 217.591 219.611 217.318 221.103 217.3C222.827 217.391 224.43 218.155 226.033 218.813C231.757 221.093 237.967 221.874 244.076 221.083C245.52 224.109 247.101 227.362 249.944 229.2C252.266 230.713 255.109 231.061 257.854 231.394C263.904 232.15 270.059 232.839 276.003 231.507C278.506 230.947 281.296 229.586 281.659 227.044C282.06 224.131 279.035 222.028 276.418 220.674L271.125 217.913C270.124 217.5 269.252 216.826 268.599 215.961C267.435 214.078 268.675 211.566 270.361 210.121C271.714 208.972 273.325 208.17 275.057 207.784C277.636 207.209 280.351 207.602 282.967 207.489C285.584 207.375 288.48 206.558 289.924 204.334C290.16 204.026 290.268 203.638 290.227 203.252C290.098 202.861 289.828 202.532 289.47 202.329C283.625 198.237 276.018 197.934 268.887 197.791L236.053 197.095C230.639 196.981 225.194 197.034 219.787 196.754C215.606 196.497 211.492 197.367 211.809 202.753Z" fill="#2C8A9F"/>
<path d="M202.252 209.081C202.272 205.334 197.031 202.267 190.545 202.232C184.059 202.197 178.785 205.207 178.765 208.954C178.744 212.702 183.986 215.768 190.472 215.803C196.957 215.838 202.231 212.829 202.252 209.081Z" fill="#F29C5A"/>
<path d="M202.252 206.952C202.272 203.204 197.031 200.138 190.545 200.103C184.059 200.067 178.785 203.077 178.765 206.825C178.744 210.572 183.986 213.639 190.472 213.674C196.957 213.709 202.231 210.699 202.252 206.952Z" fill="#FFC91F"/>
<path d="M199.575 206.77C199.59 203.862 195.52 201.483 190.484 201.456C185.447 201.429 181.351 203.764 181.336 206.671C181.32 209.579 185.39 211.959 190.427 211.986C195.463 212.013 199.559 209.678 199.575 206.77Z" fill="#F29C5A"/>
<path d="M199.271 204.982C199.292 201.234 194.05 198.168 187.565 198.133C181.079 198.097 175.805 201.107 175.785 204.855C175.764 208.602 181.006 211.669 187.491 211.704C193.977 211.739 199.251 208.729 199.271 204.982Z" fill="#F29C5A"/>
<path d="M199.271 202.852C199.292 199.104 194.05 196.038 187.565 196.003C181.079 195.968 175.805 198.977 175.785 202.725C175.764 206.472 181.006 209.539 187.491 209.574C193.977 209.609 199.251 206.6 199.271 202.852Z" fill="#FFC91F"/>
<path d="M196.594 202.67C196.61 199.763 192.54 197.383 187.503 197.356C182.467 197.329 178.371 199.664 178.355 202.572C178.339 205.48 182.41 207.859 187.446 207.886C192.483 207.913 196.578 205.578 196.594 202.67Z" fill="#F29C5A"/>
<path d="M204.13 198.532C204.15 194.784 198.909 191.718 192.423 191.683C185.937 191.648 180.663 194.657 180.643 198.405C180.623 202.152 185.864 205.219 192.35 205.254C198.835 205.289 204.11 202.279 204.13 198.532Z" fill="#F29C5A"/>
<path d="M204.122 196.41C204.143 192.662 198.901 189.596 192.416 189.561C185.93 189.526 180.656 192.535 180.635 196.283C180.615 200.03 185.856 203.097 192.342 203.132C198.828 203.167 204.102 200.157 204.122 196.41Z" fill="#FFC91F"/>
<path d="M201.453 196.228C201.469 193.32 197.398 190.941 192.362 190.914C187.325 190.887 183.23 193.222 183.214 196.129C183.198 199.037 187.268 201.417 192.305 201.444C197.341 201.471 201.437 199.136 201.453 196.228Z" fill="#F29C5A"/>
<path d="M292.618 201.645C292.656 197.898 287.428 194.807 280.942 194.742C274.456 194.677 269.168 197.663 269.131 201.41C269.093 205.158 274.321 208.249 280.807 208.314C287.293 208.379 292.581 205.393 292.618 201.645Z" fill="#F29C5A"/>
<path d="M291.337 198.518C291.357 194.77 286.116 191.704 279.63 191.669C273.144 191.634 267.87 194.643 267.85 198.391C267.83 202.138 273.071 205.205 279.557 205.24C286.042 205.275 291.317 202.266 291.337 198.518Z" fill="#FFC91F"/>
<path d="M288.66 198.336C288.676 195.429 284.605 193.049 279.569 193.022C274.532 192.995 270.437 195.33 270.421 198.238C270.405 201.146 274.475 203.525 279.512 203.552C284.548 203.579 288.644 201.244 288.66 198.336Z" fill="#F29C5A"/>
<path d="M297.598 197.03C297.636 193.283 292.408 190.192 285.922 190.127C279.436 190.062 274.148 193.048 274.111 196.795C274.073 200.543 279.301 203.634 285.787 203.699C292.272 203.763 297.561 200.778 297.598 197.03Z" fill="#F29C5A"/>
<path d="M296.294 193.932C296.314 190.184 291.073 187.118 284.587 187.083C278.102 187.047 272.827 190.057 272.807 193.805C272.787 197.552 278.028 200.619 284.514 200.654C291 200.689 296.274 197.679 296.294 193.932Z" fill="#FFC91F"/>
<path d="M293.625 193.75C293.64 190.842 289.57 188.463 284.534 188.436C279.497 188.408 275.401 190.743 275.386 193.651C275.37 196.559 279.44 198.938 284.477 198.966C289.513 198.993 293.609 196.658 293.625 193.75Z" fill="#F29C5A"/>
<path d="M293.275 189.634C293.313 185.886 288.085 182.796 281.599 182.731C275.113 182.666 269.825 185.651 269.788 189.399C269.75 193.147 274.978 196.237 281.464 196.302C287.949 196.367 293.238 193.382 293.275 189.634Z" fill="#F29C5A"/>
<path d="M291.991 186.569C292.011 182.821 286.77 179.755 280.284 179.72C273.798 179.685 268.524 182.694 268.504 186.442C268.484 190.189 273.725 193.256 280.211 193.291C286.697 193.326 291.971 190.316 291.991 186.569Z" fill="#FFC91F"/>
<path d="M289.314 186.387C289.33 183.48 285.259 181.1 280.223 181.073C275.186 181.046 271.091 183.381 271.075 186.289C271.059 189.196 275.129 191.576 280.166 191.603C285.203 191.63 289.298 189.295 289.314 186.387Z" fill="#F29C5A"/>
<path d="M212.6 171.782C212.62 168.034 207.379 164.968 200.893 164.933C194.408 164.898 189.133 167.907 189.113 171.655C189.093 175.402 194.334 178.469 200.82 178.504C207.306 178.539 212.58 175.529 212.6 171.782Z" fill="#F29C5A"/>
<path d="M212.608 169.66C212.628 165.912 207.387 162.846 200.901 162.811C194.415 162.775 189.141 165.785 189.121 169.533C189.1 173.28 194.342 176.347 200.827 176.382C207.313 176.417 212.587 173.407 212.608 169.66Z" fill="#FFC91F"/>
<path d="M209.931 169.478C209.946 166.57 205.876 164.191 200.84 164.164C195.803 164.136 191.707 166.472 191.692 169.379C191.676 172.287 195.746 174.667 200.783 174.694C205.819 174.721 209.915 172.386 209.931 169.478Z" fill="#F29C5A"/>
<path d="M273.751 225.169C273.771 221.422 268.53 218.355 262.044 218.32C255.558 218.285 250.284 221.294 250.264 225.042C250.243 228.79 255.485 231.856 261.971 231.891C268.456 231.926 273.73 228.917 273.751 225.169Z" fill="#F29C5A"/>
<path d="M273.758 223.047C273.779 219.3 268.537 216.233 262.052 216.198C255.566 216.163 250.292 219.172 250.271 222.92C250.251 226.668 255.492 229.734 261.978 229.769C268.464 229.804 273.738 226.795 273.758 223.047Z" fill="#FFC91F"/>
<path d="M271.081 222.866C271.097 219.958 267.027 217.578 261.99 217.551C256.954 217.524 252.858 219.859 252.842 222.767C252.826 225.675 256.897 228.054 261.933 228.081C266.97 228.108 271.066 225.773 271.081 222.866Z" fill="#F29C5A"/>
<path d="M255.54 209.539C246.504 214.759 231.803 214.728 222.706 209.478C218.169 206.853 215.901 203.426 215.855 199.984C215.855 198.691 216.218 180.603 216.09 181.224C215.636 183.493 219.78 192.14 222.6 190.513C231.637 185.293 246.337 185.316 255.434 190.574C257.703 191.898 261.03 180.649 262.172 182.252C262.172 182.252 261.96 197.48 262.172 198.751C262.83 202.632 260.622 206.596 255.54 209.539Z" fill="#2C8A9F"/>
<path d="M255.54 209.539C246.504 214.759 231.803 214.728 222.706 209.478C218.169 206.853 215.901 203.426 215.855 199.984C215.855 198.691 216.218 180.603 216.09 181.224C215.636 183.493 219.78 192.14 222.6 190.513C231.637 185.293 246.337 185.316 255.434 190.574C257.703 191.898 261.03 180.649 262.172 182.252C262.172 182.252 261.96 197.48 262.172 198.751C262.83 202.632 260.622 206.596 255.54 209.539Z" fill="url(#paint0_linear_140_4808)"/>
<path d="M262.284 183.025C262.324 175.618 251.963 169.557 239.142 169.487C226.321 169.418 215.895 175.366 215.855 182.774C215.815 190.181 226.176 196.242 238.997 196.312C251.818 196.381 262.244 190.433 262.284 183.025Z" fill="#2C8A9F"/>
<path d="M262.27 192.919C262.482 196.489 260.236 200.113 255.533 202.836C246.458 208.048 231.796 208.018 222.699 202.783C217.942 200.037 215.674 196.414 215.893 192.813C216.18 196.043 218.456 199.213 222.699 201.649C231.773 206.944 246.488 206.944 255.533 201.724C259.737 199.266 262.006 196.119 262.27 192.919Z" fill="#2C8A9F"/>
<path d="M257.12 182.806C257.151 177.095 249.159 172.422 239.27 172.368C229.38 172.315 221.338 176.901 221.307 182.612C221.277 188.324 229.268 192.997 239.158 193.05C249.047 193.104 257.089 188.517 257.12 182.806Z" fill="url(#paint1_linear_140_4808)"/>
<path d="M239.842 89.0308L215.84 133.141H228.862L239.842 89.0308Z" fill="#2C8A9F"/>
<path d="M239.411 176.511L215.84 133.141H228.862L239.411 176.511Z" fill="#2C8A9F"/>
<path d="M263.473 133.331L239.841 89.0308L228.862 133.141L263.473 133.331Z" fill="#2C8A9F"/>
<path d="M239.41 176.511L263.473 133.33L228.862 133.141L239.41 176.511Z" fill="#2C8A9F"/>
<path d="M239.842 89.0308L215.84 133.141H228.862L239.842 89.0308Z" fill="url(#paint2_linear_140_4808)"/>
<path d="M239.411 176.511L215.84 133.141H228.862L239.411 176.511Z" fill="url(#paint3_linear_140_4808)"/>
<path d="M263.473 133.331L239.841 89.0308L228.862 133.141L263.473 133.331Z" fill="url(#paint4_linear_140_4808)"/>
<path d="M239.41 176.511L263.473 133.33L228.862 133.141L239.41 176.511Z" fill="url(#paint5_linear_140_4808)"/>
<path d="M216.09 181.224L176.397 70.0203L297.713 61.8578L262.006 187.684C262.006 187.684 231.228 209.395 216.09 181.224Z" fill="url(#paint6_linear_140_4808)"/>
<path d="M350.404 241.266L332.256 190.332L387.821 186.549L371.427 244.216C371.427 244.216 357.339 254.164 350.404 241.266Z" fill="url(#paint7_linear_140_4808)"/>
<path d="M308.98 281.715L290.794 230.804L346.367 227.021L330.003 284.658C330.003 284.658 315.907 294.621 308.98 281.715Z" fill="url(#paint8_linear_140_4808)"/>
<path d="M125.755 166.639L107.606 115.712L163.171 111.93L146.807 169.566C146.807 169.566 132.697 179.544 125.755 166.639Z" fill="url(#paint9_linear_140_4808)"/>
<path d="M160.358 113.079L142.172 62.1452L197.744 58.3628L181.38 115.999C181.38 115.999 167.285 125.977 160.358 113.079Z" fill="url(#paint10_linear_140_4808)"/>
<path d="M45.5002 167.055L27.3516 116.128L82.9241 112.346L66.5223 170.012C66.5223 170.012 52.4269 179.96 45.5002 167.055Z" fill="url(#paint11_linear_140_4808)"/>
<path d="M369.68 254.202C365.475 256.63 358.632 256.615 354.405 254.202C352.287 252.984 351.229 251.38 351.221 249.784C351.221 249.186 351.388 240.774 351.327 241.062C351.115 242.121 353.044 246.138 354.352 245.381C358.556 242.953 365.392 242.968 369.619 245.381C370.686 245.994 372.221 240.767 372.758 241.523C372.758 241.523 372.652 248.604 372.758 249.194C373.068 250.987 372.039 252.832 369.68 254.202Z" fill="#2C8A9F"/>
<path d="M369.68 254.202C365.475 256.63 358.632 256.615 354.405 254.202C352.287 252.984 351.229 251.38 351.221 249.784C351.221 249.186 351.388 240.774 351.327 241.062C351.115 242.121 353.044 246.138 354.352 245.381C358.556 242.953 365.392 242.968 369.619 245.381C370.686 245.994 372.221 240.767 372.758 241.523C372.758 241.523 372.652 248.604 372.758 249.194C373.068 250.987 372.039 252.832 369.68 254.202Z" fill="url(#paint12_linear_140_4808)"/>
<path d="M372.808 241.861C372.827 238.414 368.007 235.594 362.044 235.561C356.08 235.529 351.23 238.297 351.212 241.744C351.193 245.191 356.013 248.011 361.976 248.043C367.94 248.075 372.79 245.307 372.808 241.861Z" fill="#2C8A9F"/>
<path d="M372.81 246.47C372.909 248.135 371.865 249.814 369.672 251.085C365.468 253.506 358.632 253.491 354.405 251.085C352.189 249.799 351.13 248.119 351.229 246.448C351.365 247.961 352.423 249.421 354.405 250.555C358.632 252.999 365.468 253.014 369.672 250.555C371.653 249.421 372.689 247.961 372.81 246.47Z" fill="#2C8A9F"/>
<path d="M370.404 241.756C370.418 239.099 366.702 236.925 362.104 236.9C357.506 236.875 353.767 239.009 353.753 241.666C353.738 244.323 357.454 246.497 362.052 246.522C366.65 246.547 370.39 244.413 370.404 241.756Z" fill="url(#paint13_linear_140_4808)"/>
<path d="M327.076 295.059C322.871 297.488 316.035 297.473 311.801 295.059C309.691 293.834 308.625 292.238 308.617 290.642C308.617 290.044 308.784 281.632 308.731 281.919C308.519 282.978 310.447 286.995 311.755 286.239C315.96 283.811 322.796 283.826 327.03 286.239C328.097 286.852 329.632 281.617 330.161 282.381C330.161 282.381 330.063 289.461 330.161 290.052C330.471 291.844 329.443 293.69 327.076 295.059Z" fill="#2C8A9F"/>
<path d="M327.076 295.059C322.871 297.488 316.035 297.473 311.801 295.059C309.691 293.834 308.625 292.238 308.617 290.642C308.617 290.044 308.784 281.632 308.731 281.919C308.519 282.978 310.447 286.995 311.755 286.239C315.96 283.811 322.796 283.826 327.03 286.239C328.097 286.852 329.632 281.617 330.161 282.381C330.161 282.381 330.063 289.461 330.161 290.052C330.471 291.844 329.443 293.69 327.076 295.059Z" fill="url(#paint14_linear_140_4808)"/>
<path d="M330.208 282.727C330.226 279.28 325.407 276.46 319.443 276.428C313.479 276.395 308.63 279.163 308.611 282.61C308.593 286.057 313.412 288.877 319.376 288.91C325.339 288.942 330.189 286.174 330.208 282.727Z" fill="#2C8A9F"/>
<path d="M330.207 287.328C330.305 288.985 329.261 290.672 327.076 291.943C322.872 294.363 316.036 294.348 311.801 291.943C309.593 290.664 308.534 288.985 308.632 287.305C308.769 288.818 309.827 290.286 311.801 291.421C316.036 293.864 322.872 293.879 327.076 291.421C329.027 290.278 330.063 288.818 330.207 287.328Z" fill="#2C8A9F"/>
<path d="M327.803 282.622C327.818 279.965 324.102 277.791 319.504 277.766C314.906 277.741 311.167 279.875 311.152 282.532C311.138 285.189 314.854 287.364 319.452 287.389C324.05 287.413 327.789 285.28 327.803 282.622Z" fill="url(#paint15_linear_140_4808)"/>
<path d="M179.649 122.422C175.444 124.85 168.608 124.835 164.381 122.422C162.264 121.204 161.198 119.6 161.19 118.004C161.19 117.407 161.364 108.994 161.303 109.282C161.092 110.341 163.02 114.358 164.328 113.601C168.533 111.173 175.369 111.188 179.603 113.601C180.669 114.214 182.205 108.987 182.734 109.743C182.734 109.743 182.636 116.824 182.734 117.414C183.044 119.207 182.015 121.053 179.649 122.422Z" fill="#2C8A9F"/>
<path d="M179.649 122.422C175.444 124.85 168.608 124.835 164.381 122.422C162.264 121.204 161.198 119.6 161.19 118.004C161.19 117.407 161.364 108.994 161.303 109.282C161.092 110.341 163.02 114.358 164.328 113.601C168.533 111.173 175.369 111.188 179.603 113.601C180.669 114.214 182.205 108.987 182.734 109.743C182.734 109.743 182.636 116.824 182.734 117.414C183.044 119.207 182.015 121.053 179.649 122.422Z" fill="url(#paint16_linear_140_4808)"/>
<path d="M182.787 110.091C182.806 106.645 177.986 103.824 172.023 103.792C166.059 103.76 161.209 106.528 161.19 109.975C161.172 113.421 165.991 116.242 171.955 116.274C177.919 116.306 182.768 113.538 182.787 110.091Z" fill="#2C8A9F"/>
<path d="M182.779 114.691C182.878 116.355 181.834 118.034 179.649 119.305C175.444 121.726 168.608 121.711 164.374 119.305C162.166 118.019 161.107 116.34 161.205 114.668C161.341 116.181 162.4 117.641 164.374 118.776C168.608 121.219 175.444 121.234 179.649 118.814C181.6 117.641 182.658 116.181 182.779 114.691Z" fill="#2C8A9F"/>
<path d="M180.383 109.987C180.397 107.33 176.681 105.155 172.083 105.131C167.485 105.106 163.746 107.24 163.732 109.897C163.717 112.554 167.433 114.728 172.031 114.753C176.629 114.778 180.368 112.644 180.383 109.987Z" fill="url(#paint17_linear_140_4808)"/>
<path d="M144.675 178.258C140.47 180.686 133.627 180.671 129.4 178.258C127.282 177.04 126.224 175.444 126.208 173.848C126.208 173.243 126.382 164.83 126.322 165.118C126.11 166.177 128.038 170.202 129.347 169.437C133.551 167.009 140.387 167.024 144.614 169.437C145.68 170.05 147.216 164.823 147.752 165.579C147.752 165.579 147.647 172.668 147.752 173.258C148.062 175.043 147.064 176.896 144.675 178.258Z" fill="#2C8A9F"/>
<path d="M144.675 178.258C140.47 180.686 133.627 180.671 129.4 178.258C127.282 177.04 126.224 175.444 126.208 173.848C126.208 173.243 126.382 164.83 126.322 165.118C126.11 166.177 128.038 170.202 129.347 169.437C133.551 167.009 140.387 167.024 144.614 169.437C145.68 170.05 147.216 164.823 147.752 165.579C147.752 165.579 147.647 172.668 147.752 173.258C148.062 175.043 147.064 176.896 144.675 178.258Z" fill="url(#paint18_linear_140_4808)"/>
<path d="M147.805 165.927C147.823 162.48 143.004 159.66 137.04 159.627C131.076 159.595 126.227 162.363 126.208 165.81C126.189 169.257 131.009 172.077 136.973 172.109C142.936 172.141 147.786 169.373 147.805 165.927Z" fill="#2C8A9F"/>
<path d="M147.82 170.527C147.919 172.191 146.875 173.878 144.682 175.141C140.478 177.562 133.642 177.555 129.415 175.141C127.199 173.863 126.14 172.176 126.239 170.504C126.375 172.017 127.433 173.477 129.415 174.612C133.642 177.063 140.478 177.07 144.682 174.65C146.626 173.485 147.677 172.017 147.82 170.527Z" fill="#2C8A9F"/>
<path d="M145.4 165.822C145.415 163.165 141.699 160.991 137.101 160.966C132.503 160.941 128.764 163.075 128.749 165.732C128.735 168.389 132.451 170.563 137.049 170.588C141.647 170.613 145.386 168.479 145.4 165.822Z" fill="url(#paint19_linear_140_4808)"/>
<path d="M64.2917 180.49C60.0948 182.918 53.2513 182.911 49.0241 180.49C46.9068 179.264 45.8481 177.668 45.833 176.072C45.833 175.474 46.0069 167.062 45.9464 167.35C45.7347 168.409 47.663 172.426 48.9712 171.669C53.1756 169.241 60.0192 169.248 64.2463 171.669C65.3125 172.289 66.8476 167.055 67.3845 167.819C67.3845 167.819 67.2786 174.899 67.3845 175.489C67.6643 177.282 66.6585 179.128 64.2917 180.49Z" fill="#2C8A9F"/>
<path d="M64.2917 180.49C60.0948 182.918 53.2513 182.911 49.0241 180.49C46.9068 179.264 45.8481 177.668 45.833 176.072C45.833 175.474 46.0069 167.062 45.9464 167.35C45.7347 168.409 47.663 172.426 48.9712 171.669C53.1756 169.241 60.0192 169.248 64.2463 171.669C65.3125 172.289 66.8476 167.055 67.3845 167.819C67.3845 167.819 67.2786 174.899 67.3845 175.489C67.6643 177.282 66.6585 179.128 64.2917 180.49Z" fill="url(#paint20_linear_140_4808)"/>
<path d="M67.4325 168.162C67.4512 164.715 62.6317 161.895 56.668 161.862C50.7043 161.83 45.8546 164.598 45.836 168.045C45.8174 171.491 50.6368 174.312 56.6005 174.344C62.5642 174.376 67.4139 171.608 67.4325 168.162Z" fill="#2C8A9F"/>
<path d="M67.4298 172.766C67.5281 174.423 66.477 176.11 64.2916 177.373C60.0872 179.801 53.2512 179.786 49.0241 177.373C46.8084 176.095 45.7498 174.408 45.8481 172.736C45.9842 174.249 47.0428 175.716 49.0241 176.844C53.2512 179.295 60.0872 179.302 64.2916 176.881C66.2501 175.716 67.3012 174.249 67.4298 172.766Z" fill="#2C8A9F"/>
<path d="M65.0206 168.049C65.035 165.392 61.3192 163.218 56.7211 163.193C52.123 163.168 48.3839 165.302 48.3695 167.959C48.3552 170.616 52.071 172.791 56.6691 172.815C61.2671 172.84 65.0063 170.706 65.0206 168.049Z" fill="url(#paint21_linear_140_4808)"/>
<defs>
<linearGradient id="paint0_linear_140_4808" x1="235.872" y1="169.392" x2="248.532" y2="257.99" gradientUnits="userSpaceOnUse">
<stop stop-color="#010101" stop-opacity="0"/>
<stop offset="0.95" stop-color="#010101"/>
</linearGradient>
<linearGradient id="paint1_linear_140_4808" x1="240.427" y1="156.628" x2="234.842" y2="275.751" gradientUnits="userSpaceOnUse">
<stop stop-color="#010101" stop-opacity="0"/>
<stop offset="0.95" stop-color="#010101"/>
</linearGradient>
<linearGradient id="paint2_linear_140_4808" x1="223.591" y1="98.5927" x2="241.835" y2="152.193" gradientUnits="userSpaceOnUse">
<stop stop-color="#010101" stop-opacity="0"/>
<stop offset="0.95" stop-color="#010101"/>
</linearGradient>
<linearGradient id="paint3_linear_140_4808" x1="219.031" y1="161.706" x2="250.672" y2="136.406" gradientUnits="userSpaceOnUse">
<stop stop-color="#010101" stop-opacity="0"/>
<stop offset="0.95" stop-color="#010101"/>
</linearGradient>
<linearGradient id="paint4_linear_140_4808" x1="240.552" y1="95.8618" x2="253.463" y2="181.729" gradientUnits="userSpaceOnUse">
<stop stop-color="#010101" stop-opacity="0"/>
<stop offset="0.95" stop-color="#010101"/>
</linearGradient>
<linearGradient id="paint5_linear_140_4808" x1="246.73" y1="129.548" x2="235.803" y2="201.511" gradientUnits="userSpaceOnUse">
<stop stop-color="#010101" stop-opacity="0"/>
<stop offset="0.95" stop-color="#010101"/>
</linearGradient>
<linearGradient id="paint6_linear_140_4808" x1="235.017" y1="91.7465" x2="224.089" y2="229.729" gradientUnits="userSpaceOnUse">
<stop stop-color="white" stop-opacity="0"/>
<stop offset="0.95" stop-color="white"/>
</linearGradient>
<linearGradient id="paint7_linear_140_4808" x1="359.07" y1="200.272" x2="354.068" y2="263.476" gradientUnits="userSpaceOnUse">
<stop stop-color="white" stop-opacity="0"/>
<stop offset="0.66" stop-color="white"/>
</linearGradient>
<linearGradient id="paint8_linear_140_4808" x1="318.803" y1="226.053" x2="313.801" y2="289.264" gradientUnits="userSpaceOnUse">
<stop stop-color="white" stop-opacity="0"/>
<stop offset="0.95" stop-color="white"/>
</linearGradient>
<linearGradient id="paint9_linear_140_4808" x1="134.421" y1="125.652" x2="129.419" y2="188.856" gradientUnits="userSpaceOnUse">
<stop stop-color="white" stop-opacity="0"/>
<stop offset="0.38" stop-color="white" stop-opacity="0.67"/>
<stop offset="0.95" stop-color="white"/>
</linearGradient>
<linearGradient id="paint10_linear_140_4808" x1="169.024" y1="72.0854" x2="164.022" y2="135.297" gradientUnits="userSpaceOnUse">
<stop stop-color="white" stop-opacity="0"/>
<stop offset="0.58" stop-color="white"/>
</linearGradient>
<linearGradient id="paint11_linear_140_4808" x1="54.1661" y1="126.068" x2="49.1639" y2="189.272" gradientUnits="userSpaceOnUse">
<stop stop-color="white" stop-opacity="0"/>
<stop offset="0.53" stop-color="white"/>
</linearGradient>
<linearGradient id="paint12_linear_140_4808" x1="360.53" y1="235.532" x2="366.418" y2="276.737" gradientUnits="userSpaceOnUse">
<stop stop-color="#010101" stop-opacity="0"/>
<stop offset="0.95" stop-color="#010101"/>
</linearGradient>
<linearGradient id="paint13_linear_140_4808" x1="362.641" y1="229.586" x2="360.046" y2="284.999" gradientUnits="userSpaceOnUse">
<stop stop-color="white" stop-opacity="0"/>
<stop offset="0.95" stop-color="white"/>
</linearGradient>
<linearGradient id="paint14_linear_140_4808" x1="317.926" y1="276.382" x2="323.821" y2="317.594" gradientUnits="userSpaceOnUse">
<stop stop-color="#010101" stop-opacity="0"/>
<stop offset="0.95" stop-color="#010101"/>
</linearGradient>
<linearGradient id="paint15_linear_140_4808" x1="320.036" y1="270.448" x2="317.44" y2="325.861" gradientUnits="userSpaceOnUse">
<stop stop-color="white" stop-opacity="0"/>
<stop offset="0.95" stop-color="white"/>
</linearGradient>
<linearGradient id="paint16_linear_140_4808" x1="170.506" y1="103.752" x2="176.394" y2="144.957" gradientUnits="userSpaceOnUse">
<stop stop-color="#010101" stop-opacity="0"/>
<stop offset="0.95" stop-color="#010101"/>
</linearGradient>
<linearGradient id="paint17_linear_140_4808" x1="172.621" y1="97.8113" x2="170.025" y2="153.224" gradientUnits="userSpaceOnUse">
<stop stop-color="white" stop-opacity="0"/>
<stop offset="0.95" stop-color="white"/>
</linearGradient>
<linearGradient id="paint18_linear_140_4808" x1="135.525" y1="159.588" x2="141.412" y2="200.793" gradientUnits="userSpaceOnUse">
<stop stop-color="#010101" stop-opacity="0"/>
<stop offset="0.95" stop-color="#010101"/>
</linearGradient>
<linearGradient id="paint19_linear_140_4808" x1="138.384" y1="153.033" x2="136.042" y2="208.452" gradientUnits="userSpaceOnUse">
<stop stop-color="white" stop-opacity="0"/>
<stop offset="0.95" stop-color="white"/>
</linearGradient>
<linearGradient id="paint20_linear_140_4808" x1="55.1493" y1="161.82" x2="61.0369" y2="203.032" gradientUnits="userSpaceOnUse">
<stop stop-color="#010101" stop-opacity="0"/>
<stop offset="0.95" stop-color="#010101"/>
</linearGradient>
<linearGradient id="paint21_linear_140_4808" x1="57.2647" y1="155.877" x2="54.6614" y2="211.289" gradientUnits="userSpaceOnUse">
<stop stop-color="white" stop-opacity="0"/>
<stop offset="0.95" stop-color="white"/>
</linearGradient>
</defs>
</svg>
