<!-- width="545" height="253" -->
<svg viewBox="0 0 545 253" fill="none" xmlns="http://www.w3.org/2000/svg">
<g clip-path="url(#clip0_41_6218)">
<path d="M115.579 238.477C102.53 229.954 93.0421 214.633 94.9839 199.143C106.734 211.371 122.42 219.039 139.268 220.79C145.768 221.442 153.065 221.489 157.681 226.122C160.553 229.004 161.773 233.218 161.836 237.291C161.899 241.364 160.922 245.374 159.952 249.33L160.191 250.318C144.626 249.742 128.628 247.001 115.579 238.477Z" fill="#F0F0F0"/>
<path d="M95.3106 199.14C100.192 211.1 108.709 221.214 119.652 228.046C121.982 229.558 124.535 230.693 127.217 231.409C129.852 232.022 132.604 231.916 135.184 231.103C137.606 230.393 140.001 229.385 142.553 229.278C143.859 229.242 145.159 229.484 146.366 229.987C147.574 230.49 148.661 231.243 149.557 232.197C151.853 234.516 153.18 237.523 154.376 240.508C155.704 243.823 157.03 247.288 159.735 249.743C160.062 250.041 159.583 250.533 159.255 250.236C154.55 245.964 154.033 239.11 150.334 234.154C148.608 231.842 146.177 230.036 143.204 229.96C140.605 229.893 138.134 230.93 135.689 231.67C133.183 232.5 130.512 232.703 127.91 232.261C125.199 231.684 122.607 230.649 120.243 229.201C114.87 226.025 110.028 222.022 105.895 217.339C101.149 212.021 97.3451 205.927 94.6487 199.323C94.482 198.914 95.145 198.734 95.3106 199.14Z" fill="white"/>
<path d="M115.999 226.054C114.606 227.738 112.661 228.872 110.512 229.252C108.362 229.632 106.148 229.233 104.264 228.128C103.883 227.903 104.214 227.3 104.595 227.525C106.348 228.558 108.41 228.929 110.411 228.571C112.412 228.213 114.22 227.15 115.508 225.573C115.788 225.231 116.278 225.713 115.999 226.054Z" fill="white"/>
<path d="M134.004 231.625C133.628 227.168 131.589 223.018 128.295 220.001C127.969 219.702 128.448 219.21 128.774 219.508C132.196 222.654 134.309 226.978 134.69 231.616C134.726 232.058 134.04 232.064 134.004 231.625Z" fill="white"/>
<path d="M102.013 211.733C102.687 211.193 103.217 210.495 103.556 209.699C103.894 208.904 104.03 208.037 103.952 207.176C103.91 206.734 104.597 206.728 104.638 207.167C104.72 208.119 104.569 209.076 104.197 209.956C103.825 210.835 103.244 211.61 102.504 212.213C102.439 212.276 102.353 212.311 102.263 212.312C102.172 212.313 102.085 212.28 102.019 212.219C101.954 212.155 101.917 212.068 101.916 211.977C101.915 211.886 101.949 211.798 102.013 211.733Z" fill="white"/>
<path d="M139.496 170.798C139.529 171.073 139.563 171.348 139.602 171.626C140.076 175.32 140.848 178.969 141.912 182.537C141.989 182.814 142.072 183.094 142.158 183.368C144.811 191.937 149.029 199.939 154.596 206.965C156.814 209.759 159.241 212.379 161.855 214.804C165.466 218.153 169.648 221.495 171.879 225.72C172.116 226.158 172.327 226.61 172.508 227.075L161.375 249.95C161.324 249.989 161.278 250.031 161.226 250.071L160.823 251.005C160.68 250.889 160.533 250.766 160.39 250.65C160.306 250.584 160.225 250.512 160.142 250.445C160.087 250.399 160.032 250.353 159.98 250.314C159.961 250.299 159.943 250.283 159.93 250.271C159.878 250.232 159.833 250.191 159.787 250.155C158.966 249.47 158.149 248.777 157.336 248.078C157.33 248.076 157.33 248.076 157.328 248.068C151.142 242.724 145.348 236.816 140.632 230.214C140.49 230.015 140.343 229.814 140.206 229.605C138.097 226.617 136.235 223.462 134.639 220.17C133.77 218.365 132.994 216.516 132.312 214.632C130.56 209.761 129.583 204.644 129.417 199.468C129.088 189.15 132.055 178.842 138.962 171.365C139.139 171.173 139.314 170.987 139.496 170.798Z" fill="#F0F0F0"/>
<path d="M139.76 170.992C136.473 183.486 137.198 196.701 141.832 208.76C142.783 211.373 144.14 213.82 145.852 216.01C147.588 218.09 149.848 219.665 152.397 220.573C154.757 221.468 157.275 222.109 159.377 223.563C160.441 224.323 161.334 225.3 161.996 226.43C162.657 227.561 163.073 228.818 163.216 230.121C163.656 233.357 162.909 236.559 162.071 239.664C161.139 243.113 160.118 246.679 160.802 250.272C160.885 250.707 160.206 250.81 160.123 250.376C158.933 244.126 162.636 238.341 162.66 232.152C162.672 229.264 161.815 226.356 159.487 224.501C157.452 222.879 154.856 222.216 152.459 221.331C149.959 220.482 147.705 219.032 145.893 217.108C144.076 215.012 142.627 212.622 141.61 210.039C139.227 204.261 137.766 198.143 137.279 191.91C136.684 184.799 137.307 177.638 139.122 170.738C139.234 170.311 139.872 170.567 139.76 170.992Z" fill="white"/>
<path d="M140.112 204.965C137.988 205.469 135.754 205.201 133.809 204.207C131.865 203.213 130.336 201.559 129.496 199.539C129.327 199.13 129.954 198.848 130.123 199.258C130.901 201.14 132.326 202.681 134.138 203.603C135.951 204.524 138.033 204.766 140.008 204.285C140.437 204.181 140.539 204.861 140.112 204.965Z" fill="white"/>
<path d="M151.141 220.278C153.518 216.492 154.383 211.948 153.566 207.552C153.484 207.116 154.163 207.013 154.244 207.448C155.087 212.024 154.176 216.751 151.695 220.685C151.458 221.06 150.906 220.651 151.141 220.278Z" fill="white"/>
<path d="M137.547 185.09C138.409 185.067 139.252 184.829 140 184.398C140.748 183.967 141.378 183.357 141.833 182.622C142.064 182.244 142.616 182.654 142.386 183.029C141.88 183.839 141.184 184.512 140.358 184.99C139.533 185.468 138.603 185.736 137.651 185.77C137.561 185.781 137.471 185.757 137.398 185.704C137.326 185.65 137.276 185.571 137.26 185.482C137.246 185.392 137.269 185.3 137.323 185.227C137.377 185.154 137.457 185.104 137.547 185.09Z" fill="white"/>
<path d="M513.808 238.477C526.858 229.954 536.346 214.633 534.404 199.143C522.654 211.371 506.967 219.039 490.12 220.79C483.62 221.442 476.323 221.489 471.707 226.122C468.835 229.004 467.614 233.218 467.551 237.291C467.489 241.364 468.465 245.374 469.435 249.33L469.197 250.318C484.762 249.742 500.759 247.001 513.808 238.477Z" fill="#F0F0F0"/>
<path d="M534.077 199.14C529.196 211.1 520.679 221.214 509.736 228.046C507.406 229.558 504.853 230.693 502.171 231.409C499.535 232.022 496.784 231.916 494.203 231.103C491.782 230.393 489.387 229.385 486.835 229.278C485.528 229.242 484.228 229.484 483.021 229.987C481.814 230.49 480.727 231.243 479.83 232.197C477.535 234.516 476.208 237.523 475.012 240.508C473.684 243.823 472.357 247.288 469.653 249.743C469.325 250.041 469.805 250.533 470.132 250.236C474.837 245.964 475.355 239.11 479.053 234.154C480.779 231.842 483.211 230.036 486.183 229.96C488.782 229.893 491.253 230.93 493.699 231.67C496.205 232.5 498.876 232.703 501.478 232.261C504.188 231.684 506.78 230.649 509.144 229.201C514.518 226.025 519.36 222.022 523.492 217.339C528.239 212.021 532.042 205.927 534.739 199.323C534.905 198.914 534.243 198.734 534.077 199.14Z" fill="white"/>
<path d="M513.388 226.054C514.781 227.738 516.726 228.872 518.876 229.252C521.026 229.632 523.24 229.233 525.124 228.128C525.504 227.903 525.173 227.3 524.792 227.525C523.04 228.558 520.977 228.929 518.976 228.571C516.975 228.213 515.168 227.15 513.88 225.573C513.6 225.231 513.11 225.713 513.388 226.054Z" fill="white"/>
<path d="M495.384 231.625C495.76 227.168 497.798 223.018 501.092 220.001C501.419 219.702 500.939 219.21 500.613 219.508C497.191 222.654 495.079 226.978 494.697 231.616C494.661 232.058 495.348 232.064 495.384 231.625Z" fill="white"/>
<path d="M527.375 211.733C526.701 211.193 526.17 210.495 525.832 209.699C525.494 208.904 525.357 208.037 525.436 207.176C525.478 206.734 524.791 206.728 524.75 207.167C524.667 208.119 524.819 209.076 525.191 209.956C525.563 210.835 526.144 211.61 526.884 212.213C526.949 212.276 527.035 212.311 527.125 212.312C527.215 212.313 527.302 212.28 527.369 212.219C527.434 212.155 527.471 212.068 527.472 211.977C527.473 211.886 527.438 211.798 527.375 211.733Z" fill="white"/>
<path d="M489.892 170.798C489.858 171.073 489.824 171.348 489.785 171.626C489.312 175.32 488.539 178.969 487.476 182.537C487.398 182.814 487.315 183.094 487.23 183.368C484.576 191.937 480.359 199.939 474.792 206.965C472.574 209.759 470.147 212.379 467.532 214.804C463.921 218.153 459.74 221.495 457.509 225.72C457.271 226.158 457.061 226.61 456.879 227.075L468.012 249.95C468.064 249.989 468.11 250.031 468.161 250.071L468.564 251.005C468.708 250.889 468.854 250.766 468.998 250.65C469.081 250.584 469.162 250.512 469.246 250.445C469.301 250.399 469.356 250.353 469.408 250.314C469.426 250.299 469.444 250.283 469.458 250.271C469.51 250.232 469.554 250.191 469.601 250.155C470.421 249.47 471.238 248.777 472.052 248.078C472.057 248.076 472.057 248.076 472.06 248.068C478.245 242.724 484.04 236.816 488.756 230.214C488.898 230.015 489.045 229.814 489.182 229.605C491.291 226.617 493.153 223.462 494.749 220.17C495.617 218.365 496.394 216.516 497.076 214.632C498.828 209.761 499.805 204.644 499.971 199.468C500.3 189.15 497.333 178.842 490.425 171.365C490.249 171.173 490.074 170.987 489.892 170.798Z" fill="#F0F0F0"/>
<path d="M489.627 170.992C492.914 183.486 492.189 196.701 487.555 208.76C486.604 211.373 485.247 213.82 483.536 216.01C481.799 218.09 479.539 219.665 476.99 220.573C474.63 221.468 472.113 222.109 470.011 223.563C468.946 224.323 468.053 225.3 467.392 226.43C466.73 227.561 466.314 228.818 466.171 230.121C465.732 233.357 466.478 236.559 467.317 239.664C468.248 243.113 469.27 246.679 468.585 250.272C468.502 250.707 469.181 250.81 469.264 250.376C470.454 244.126 466.751 238.341 466.727 232.152C466.715 229.264 467.572 226.356 469.9 224.501C471.935 222.879 474.531 222.216 476.928 221.331C479.428 220.482 481.682 219.032 483.494 217.108C485.312 215.012 486.76 212.622 487.777 210.039C490.16 204.261 491.621 198.143 492.108 191.91C492.703 184.799 492.08 177.638 490.266 170.738C490.153 170.311 489.515 170.567 489.627 170.992Z" fill="white"/>
<path d="M489.276 204.965C491.4 205.469 493.633 205.201 495.578 204.207C497.523 203.213 499.052 201.559 499.892 199.539C500.06 199.13 499.434 198.848 499.265 199.258C498.486 201.14 497.062 202.681 495.249 203.603C493.436 204.524 491.355 204.766 489.38 204.285C488.95 204.181 488.849 204.861 489.276 204.965Z" fill="white"/>
<path d="M478.246 220.278C475.87 216.492 475.004 211.948 475.822 207.552C475.903 207.116 475.224 207.013 475.143 207.448C474.301 212.024 475.211 216.751 477.693 220.685C477.93 221.06 478.482 220.651 478.246 220.278Z" fill="white"/>
<path d="M491.841 185.09C490.978 185.067 490.135 184.829 489.387 184.398C488.639 183.967 488.009 183.357 487.555 182.622C487.323 182.244 486.771 182.654 487.002 183.029C487.508 183.839 488.204 184.512 489.029 184.99C489.854 185.468 490.784 185.736 491.737 185.77C491.826 185.781 491.916 185.757 491.989 185.704C492.062 185.65 492.111 185.571 492.128 185.482C492.141 185.392 492.118 185.3 492.065 185.227C492.011 185.154 491.93 185.104 491.841 185.09Z" fill="white"/>
<path d="M141.28 163.313C140.787 163.015 140.364 162.612 140.043 162.133C139.721 161.654 139.508 161.11 139.419 160.539C139.33 159.968 139.367 159.385 139.527 158.83C139.687 158.276 139.966 157.763 140.345 157.328L133.404 145.134L140.668 145.604L146.146 157.112C146.832 157.799 147.244 158.714 147.302 159.685C147.36 160.655 147.061 161.614 146.461 162.378C145.861 163.142 145.003 163.66 144.048 163.832C143.093 164.004 142.108 163.819 141.28 163.313Z" fill="#FFB6B6"/>
<path d="M87.846 246.441H92.6519L94.9381 227.863L87.8455 227.863L87.846 246.441Z" fill="#FFB6B6"/>
<path d="M86.6204 244.869L96.0842 244.868C97.6837 244.868 99.218 245.505 100.349 246.639C101.48 247.772 102.116 249.31 102.116 250.913V251.109L86.6206 251.11L86.6204 244.869Z" fill="#2F2E41"/>
<path d="M120.772 246.441H125.577L127.864 227.863L120.771 227.863L120.772 246.441Z" fill="#FFB6B6"/>
<path d="M119.546 244.869L129.01 244.868C130.609 244.868 132.144 245.505 133.275 246.639C134.406 247.772 135.041 249.31 135.041 250.913V251.109L119.546 251.11L119.546 244.869Z" fill="#2F2E41"/>
<path d="M133.129 145.658C133.129 145.658 134.451 164.524 131.848 174.025C129.244 183.527 128.779 240.986 128.779 240.986H120.053L112.49 162.772L95.0545 241.262L86.7429 240.689L91.3011 148.199L133.129 145.658Z" fill="#2F2E41"/>
<path d="M94.907 82.0609L101.578 77.1819L112.756 79.6214L115.782 86.8275L120.995 89.4185C122.71 90.2704 124.192 91.5268 125.315 93.0797C126.438 94.6326 127.168 96.4355 127.442 98.3336L134.891 149.888L91.3011 148.199L86.024 87.4838C85.9689 86.8496 86.0413 86.2107 86.2369 85.605C86.4325 84.9993 86.7473 84.4391 87.1627 83.9575C87.5781 83.4759 88.0858 83.0828 88.6555 82.8013C89.2252 82.5198 89.8455 82.3558 90.4796 82.3188L94.907 82.0609Z" fill="#3F3D56"/>
<path d="M123.754 93.4456L127.78 98.885L145.315 152.49L137.095 155.789L123.934 130.81L123.754 93.4456Z" fill="#3F3D56"/>
<path d="M109.16 74.6346C114.537 74.6346 118.896 70.2657 118.896 64.8765C118.896 59.4873 114.537 55.1184 109.16 55.1184C103.783 55.1184 99.4241 59.4873 99.4241 64.8765C99.4241 70.2657 103.783 74.6346 109.16 74.6346Z" fill="#FFB9B9"/>
<path opacity="0.1" d="M87.9358 105.023L103.823 127.171L121.582 138.778L87.9358 105.023Z" fill="black"/>
<path d="M104 71.9309C103.323 70.5757 102.627 69.1006 102.885 67.6073C103.144 66.114 104.854 64.8129 106.173 65.5532C106.721 63.5701 109.145 62.7023 111.185 62.9312C113.225 63.1601 115.103 64.1464 117.112 64.5699C119.121 64.9933 121.561 64.6574 122.647 62.9112L120.049 62.8661L122.754 59.7211L119.618 59.486C120.704 58.311 120.416 56.3147 119.364 55.1085C118.313 53.9022 116.717 53.3315 115.16 52.9706C112.051 52.2524 108.83 52.1782 105.692 52.7525C104.212 52.9811 102.786 53.4783 101.485 54.2197C100.259 54.9689 99.2465 56.0216 98.5441 57.2764C97.7862 58.6922 97.3765 60.2688 97.3492 61.8752C97.3029 64.027 97.7962 66.156 98.7839 68.067C99.7715 69.9781 101.222 71.6102 103.002 72.8137" fill="#2F2E41"/>
<path d="M466.494 251.361H164.358C161.247 251.357 158.264 250.117 156.064 247.912C153.864 245.706 152.626 242.717 152.623 239.598V12.2625C152.626 9.14394 153.864 6.15413 156.064 3.949C158.264 1.74387 161.247 0.503501 164.358 0.5H466.494C469.605 0.503556 472.588 1.74395 474.788 3.94908C476.988 6.1542 478.226 9.14398 478.229 12.2625V239.598C478.226 242.717 476.988 245.706 474.788 247.912C472.588 250.117 469.605 251.357 466.494 251.361Z" fill="#E4E4E4"/>
<path d="M390.452 104.88H343.813C341.508 104.88 339.297 103.962 337.667 102.329C336.038 100.695 335.122 98.4796 335.122 96.1695C335.122 93.8593 336.038 91.6438 337.667 90.0103C339.297 88.3768 341.508 87.459 343.813 87.459H390.452C392.757 87.459 394.968 88.3768 396.597 90.0103C398.227 91.6438 399.143 93.8593 399.143 96.1695C399.143 98.4796 398.227 100.695 396.597 102.329C394.968 103.962 392.757 104.88 390.452 104.88Z" fill="white"/>
<path d="M349.606 128.688H338.598C337.753 128.688 336.943 128.352 336.345 127.753C335.748 127.154 335.412 126.342 335.412 125.495C335.412 124.648 335.748 123.835 336.345 123.236C336.943 122.637 337.753 122.301 338.598 122.301H349.606C350.452 122.301 351.262 122.637 351.86 123.236C352.457 123.835 352.793 124.648 352.793 125.495C352.793 126.342 352.457 127.154 351.86 127.753C351.262 128.352 350.452 128.688 349.606 128.688Z" fill="white"/>
<path d="M395.377 128.688H384.369C383.524 128.688 382.713 128.352 382.115 127.753C381.518 127.154 381.182 126.342 381.182 125.495C381.182 124.648 381.518 123.835 382.115 123.236C382.713 122.637 383.524 122.301 384.369 122.301H395.377C396.222 122.301 397.032 122.637 397.63 123.236C398.228 123.835 398.563 124.648 398.563 125.495C398.563 126.342 398.228 127.154 397.63 127.753C397.032 128.352 396.222 128.688 395.377 128.688Z" fill="white"/>
<path d="M372.202 128.688H361.194C360.349 128.688 359.538 128.352 358.941 127.753C358.343 127.154 358.007 126.342 358.007 125.495C358.007 124.648 358.343 123.835 358.941 123.236C359.538 122.637 360.349 122.301 361.194 122.301H372.202C373.047 122.301 373.858 122.637 374.455 123.236C375.053 123.835 375.388 124.648 375.388 125.495C375.388 126.342 375.053 127.154 374.455 127.753C373.858 128.352 373.047 128.688 372.202 128.688Z" fill="white"/>
<path d="M349.606 140.883H338.598C337.753 140.883 336.943 140.547 336.345 139.948C335.748 139.349 335.412 138.536 335.412 137.689C335.412 136.842 335.748 136.03 336.345 135.431C336.943 134.832 337.753 134.495 338.598 134.495H349.606C350.452 134.495 351.262 134.832 351.86 135.431C352.457 136.03 352.793 136.842 352.793 137.689C352.793 138.536 352.457 139.349 351.86 139.948C351.262 140.547 350.452 140.883 349.606 140.883Z" fill="white"/>
<path d="M395.377 140.883H384.369C383.524 140.883 382.713 140.547 382.115 139.948C381.518 139.349 381.182 138.536 381.182 137.689C381.182 136.842 381.518 136.03 382.115 135.431C382.713 134.832 383.524 134.495 384.369 134.495H395.377C396.222 134.495 397.032 134.832 397.63 135.431C398.228 136.03 398.563 136.842 398.563 137.689C398.563 138.536 398.228 139.349 397.63 139.948C397.032 140.547 396.222 140.883 395.377 140.883Z" fill="white"/>
<path d="M372.202 140.883H361.194C360.349 140.883 359.538 140.547 358.941 139.948C358.343 139.349 358.007 138.536 358.007 137.689C358.007 136.842 358.343 136.03 358.941 135.431C359.538 134.832 360.349 134.495 361.194 134.495H372.202C373.047 134.495 373.858 134.832 374.455 135.431C375.053 136.03 375.388 136.842 375.388 137.689C375.388 138.536 375.053 139.349 374.455 139.948C373.858 140.547 373.047 140.883 372.202 140.883Z" fill="white"/>
<path d="M349.606 153.078H338.598C337.753 153.078 336.943 152.741 336.345 152.142C335.748 151.543 335.412 150.731 335.412 149.884C335.412 149.037 335.748 148.224 336.345 147.626C336.943 147.027 337.753 146.69 338.598 146.69H349.606C350.452 146.69 351.262 147.027 351.86 147.626C352.457 148.224 352.793 149.037 352.793 149.884C352.793 150.731 352.457 151.543 351.86 152.142C351.262 152.741 350.452 153.078 349.606 153.078Z" fill="white"/>
<path d="M395.377 153.078H384.369C383.524 153.078 382.713 152.741 382.115 152.142C381.518 151.543 381.182 150.731 381.182 149.884C381.182 149.037 381.518 148.224 382.115 147.626C382.713 147.027 383.524 146.69 384.369 146.69H395.377C396.222 146.69 397.032 147.027 397.63 147.626C398.228 148.224 398.563 149.037 398.563 149.884C398.563 150.731 398.228 151.543 397.63 152.142C397.032 152.741 396.222 153.078 395.377 153.078Z" fill="white"/>
<path d="M372.202 153.078H361.194C360.349 153.078 359.538 152.741 358.941 152.142C358.343 151.543 358.007 150.731 358.007 149.884C358.007 149.037 358.343 148.224 358.941 147.626C359.538 147.027 360.349 146.69 361.194 146.69H372.202C373.047 146.69 373.858 147.027 374.455 147.626C375.053 148.224 375.388 149.037 375.388 149.884C375.388 150.731 375.053 151.543 374.455 152.142C373.858 152.741 373.047 153.078 372.202 153.078Z" fill="white"/>
<path d="M349.606 165.272H338.598C337.753 165.272 336.943 164.936 336.345 164.337C335.748 163.738 335.412 162.926 335.412 162.078C335.412 161.231 335.748 160.419 336.345 159.82C336.943 159.221 337.753 158.885 338.598 158.885H349.606C350.452 158.885 351.262 159.221 351.86 159.82C352.457 160.419 352.793 161.231 352.793 162.078C352.793 162.926 352.457 163.738 351.86 164.337C351.262 164.936 350.452 165.272 349.606 165.272Z" fill="white"/>
<path d="M395.377 165.272H384.369C383.524 165.272 382.713 164.936 382.115 164.337C381.518 163.738 381.182 162.926 381.182 162.078C381.182 161.231 381.518 160.419 382.115 159.82C382.713 159.221 383.524 158.885 384.369 158.885H395.377C396.222 158.885 397.032 159.221 397.63 159.82C398.228 160.419 398.563 161.231 398.563 162.078C398.563 162.926 398.228 163.738 397.63 164.337C397.032 164.936 396.222 165.272 395.377 165.272Z" fill="white"/>
<path d="M372.202 165.272H361.194C360.349 165.272 359.538 164.936 358.941 164.337C358.343 163.738 358.007 162.926 358.007 162.078C358.007 161.231 358.343 160.419 358.941 159.82C359.538 159.221 360.349 158.885 361.194 158.885H372.202C373.047 158.885 373.858 159.221 374.455 159.82C375.053 160.419 375.388 161.231 375.388 162.078C375.388 162.926 375.053 163.738 374.455 164.337C373.858 164.936 373.047 165.272 372.202 165.272Z" fill="white"/>
<path d="M275.157 152.497C291.476 152.497 304.705 139.238 304.705 122.882C304.705 106.525 291.476 93.2661 275.157 93.2661C258.838 93.2661 245.609 106.525 245.609 122.882C245.609 139.238 258.838 152.497 275.157 152.497Z" fill="#CACACA"/>
<path d="M275.157 159.175C272.853 159.172 270.644 158.254 269.015 156.621C267.386 154.988 266.469 152.774 266.467 150.465V95.2984C266.466 94.154 266.69 93.0205 267.126 91.9629C267.563 90.9053 268.203 89.9443 269.01 89.1347C269.817 88.3251 270.775 87.6828 271.83 87.2447C272.885 86.8065 274.015 86.5809 275.157 86.5809C276.299 86.5809 277.43 86.8065 278.485 87.2447C279.54 87.6828 280.498 88.3251 281.305 89.1347C282.112 89.9443 282.752 90.9053 283.188 91.9629C283.625 93.0205 283.849 94.154 283.848 95.2984V150.465C283.845 152.774 282.929 154.988 281.3 156.621C279.67 158.254 277.461 159.172 275.157 159.175Z" fill="white"/>
<path d="M352.351 101.14H344.239C343.932 101.14 343.637 101.017 343.42 100.8C343.203 100.582 343.081 100.286 343.081 99.9783C343.081 99.6703 343.203 99.3749 343.42 99.1571C343.637 98.9393 343.932 98.817 344.239 98.817H352.351C352.658 98.817 352.953 98.9393 353.17 99.1571C353.387 99.3749 353.509 99.6703 353.509 99.9783C353.509 100.286 353.387 100.582 353.17 100.8C352.953 101.017 352.658 101.14 352.351 101.14Z" fill="#E4E4E4"/>
<path d="M365.097 101.43H356.985C356.678 101.43 356.383 101.308 356.166 101.09C355.949 100.872 355.827 100.577 355.827 100.269C355.827 99.9607 355.949 99.6653 356.166 99.4475C356.383 99.2297 356.678 99.1073 356.985 99.1073H365.097C365.404 99.1073 365.699 99.2297 365.916 99.4475C366.133 99.6653 366.255 99.9607 366.255 100.269C366.255 100.577 366.133 100.872 365.916 101.09C365.699 101.308 365.404 101.43 365.097 101.43Z" fill="#E4E4E4"/>
<path d="M377.843 101.72H369.732C369.424 101.72 369.13 101.598 368.912 101.38C368.695 101.162 368.573 100.867 368.573 100.559C368.573 100.251 368.695 99.9556 368.912 99.7378C369.13 99.52 369.424 99.3976 369.732 99.3976H377.843C378.15 99.3976 378.445 99.52 378.662 99.7378C378.88 99.9556 379.002 100.251 379.002 100.559C379.002 100.867 378.88 101.162 378.662 101.38C378.445 101.598 378.15 101.72 377.843 101.72Z" fill="#E4E4E4"/>
<path d="M390.589 102.011H382.478C382.171 102.011 381.876 101.888 381.658 101.671C381.441 101.453 381.319 101.157 381.319 100.849C381.319 100.541 381.441 100.246 381.658 100.028C381.876 99.8103 382.171 99.688 382.478 99.688H390.589C390.896 99.688 391.191 99.8103 391.408 100.028C391.626 100.246 391.748 100.541 391.748 100.849C391.748 101.157 391.626 101.453 391.408 101.671C391.191 101.888 390.896 102.011 390.589 102.011Z" fill="#E4E4E4"/>
<path d="M168.267 177.534C189.402 177.534 206.534 160.402 206.534 139.267C206.534 118.133 189.402 101 168.267 101C147.133 101 130 118.133 130 139.267C130 160.402 147.133 177.534 168.267 177.534Z" fill="#FDCD01"/>
<path d="M168.002 171.473C185.832 171.473 200.286 157.019 200.286 139.189C200.286 121.359 185.832 106.905 168.002 106.905C150.172 106.905 135.718 121.359 135.718 139.189C135.718 157.019 150.172 171.473 168.002 171.473Z" fill="url(#paint0_linear_41_6218)"/>
<path d="M141.933 112.154L187.369 172.142C187.369 172.142 195.601 167.45 198.808 160.412L155.403 104.405" fill="url(#paint1_linear_41_6218)"/>
<path d="M179.313 149.389C179.006 150.216 178.567 150.988 178.015 151.675C177.496 152.313 176.893 152.878 176.222 153.355C175.616 153.791 174.954 154.145 174.254 154.406C173.027 154.838 171.744 155.091 170.445 155.155C169.043 155.245 167.685 155.289 166.37 155.289H150.92V154.84C151.649 154.729 152.362 154.534 153.046 154.26C153.672 154.021 154.233 153.636 154.681 153.138C154.861 152.906 154.989 152.638 155.055 152.352C155.145 152.008 155.227 151.604 155.302 151.166C155.377 150.728 155.429 150.249 155.459 149.755C155.489 149.261 155.504 148.779 155.504 148.3C155.504 147.884 155.504 147.316 155.527 146.597C155.549 145.879 155.553 145.101 155.568 144.247C155.583 143.394 155.594 142.522 155.594 141.628V134.698C155.594 134.044 155.594 133.374 155.568 132.685C155.542 131.997 155.568 131.207 155.568 130.313C155.568 129.774 155.549 129.232 155.523 128.678C155.497 128.124 155.437 127.597 155.366 127.088C155.301 126.628 155.211 126.172 155.096 125.722C155.032 125.398 154.885 125.096 154.67 124.846C154.303 124.426 153.843 124.097 153.326 123.885C152.719 123.689 152.091 123.564 151.455 123.511V123.065H166.55C167.636 123.063 168.72 123.129 169.798 123.264C170.821 123.397 171.825 123.648 172.791 124.012C174.249 124.535 175.546 125.43 176.552 126.609C177.542 127.864 178.046 129.434 177.97 131.031C177.97 133.002 177.335 134.592 176.065 135.802C174.682 137.069 172.966 137.916 171.119 138.242V138.421C172.208 138.545 173.277 138.809 174.299 139.207C175.315 139.593 176.261 140.144 177.098 140.839C177.909 141.515 178.578 142.345 179.066 143.282C179.574 144.271 179.831 145.37 179.814 146.481C179.826 147.473 179.656 148.458 179.313 149.389ZM171.676 127.043C170.995 125.946 170.006 125.074 168.832 124.536C167.49 123.937 165.774 123.638 163.684 123.638C163.115 123.635 162.546 123.665 161.981 123.728C161.587 123.765 161.197 123.84 160.817 123.952C160.787 124.132 160.758 124.296 160.728 124.446C160.693 124.63 160.671 124.816 160.66 125.003C160.645 125.228 160.63 125.505 160.615 125.834C160.615 126.163 160.578 126.583 160.548 127.133C160.518 128.175 160.496 129.324 160.481 130.579C160.466 131.833 160.458 133.028 160.458 134.163V138.463H162.965C163.654 138.463 164.204 138.463 164.623 138.418C167.309 138.268 169.347 137.507 170.737 136.135C171.416 135.473 171.951 134.678 172.309 133.8C172.667 132.922 172.84 131.98 172.817 131.031C172.842 129.618 172.445 128.229 171.676 127.043ZM174.161 144.532C173.879 143.775 173.486 143.065 172.993 142.425C172.502 141.785 171.914 141.226 171.249 140.768C170.565 140.3 169.818 139.931 169.031 139.671C168.386 139.471 167.723 139.334 167.051 139.263C166.299 139.184 165.543 139.148 164.787 139.155H160.458V144.768C160.458 145.601 160.466 146.369 160.481 147.072C160.481 147.776 160.503 148.378 160.503 148.887C160.533 150.022 160.585 150.955 160.66 151.686C160.706 152.338 160.932 152.965 161.311 153.497C161.639 153.87 162.054 154.155 162.52 154.328C163.268 154.586 164.057 154.7 164.847 154.665C165.79 154.66 166.732 154.6 167.669 154.485C168.704 154.358 169.706 154.04 170.625 153.546C171.812 152.949 172.817 152.044 173.536 150.927C174.248 149.747 174.605 148.386 174.565 147.009C174.58 146.166 174.444 145.326 174.161 144.532Z" fill="#FDCD01"/>
<path d="M162.849 117.307H160.099V123.698H162.849V117.307Z" fill="#FDCD01"/>
<path d="M168.458 117.307H165.708V123.698H168.458V117.307Z" fill="#FDCD01"/>
<path d="M200.722 112.322C219.529 102.682 226.962 79.6207 217.322 60.8128C207.682 42.0049 184.621 34.5727 165.813 44.2125C147.005 53.8523 139.573 76.9137 149.212 95.7215C158.852 114.529 181.914 121.962 200.722 112.322Z" fill="#FDCD01"/>
<path d="M197.72 107.049C213.588 98.916 219.858 79.4603 211.725 63.593C203.592 47.7258 184.137 41.4556 168.27 49.5882C152.402 57.7208 146.132 77.1765 154.265 93.0438C162.397 108.911 181.853 115.181 197.72 107.049Z" fill="url(#paint2_linear_41_6218)"/>
<path d="M147.465 66.1505L215.261 98.8107C215.261 98.8107 220.447 90.8803 220.09 83.1542L155.918 53.1102" fill="url(#paint3_linear_41_6218)"/>
<path d="M197.714 82.2363C197.818 83.1122 197.78 83.9992 197.601 84.863C197.43 85.6677 197.151 86.4456 196.772 87.1757C196.432 87.8406 196.004 88.4572 195.5 89.0091C194.606 89.9532 193.579 90.7627 192.452 91.4125C191.245 92.1318 190.057 92.7913 188.887 93.3909L175.138 100.438L174.933 100.038C175.53 99.6067 176.076 99.1083 176.56 98.5528C177.008 98.0542 177.332 97.4561 177.503 96.808C177.558 96.5196 177.549 96.2228 177.478 95.938C177.401 95.5907 177.29 95.1936 177.157 94.7698C177.023 94.3461 176.852 93.896 176.653 93.4428C176.454 92.9896 176.247 92.5532 176.029 92.127C175.84 91.7574 175.58 91.2512 175.272 90.6016C174.965 89.9521 174.613 89.2577 174.237 88.4917C173.861 87.7257 173.474 86.9447 173.066 86.1488L169.905 79.9819C169.606 79.3992 169.301 78.8031 168.964 78.2024C168.626 77.6016 168.289 76.8871 167.882 76.0912C167.636 75.6117 167.372 75.1374 167.096 74.6566C166.82 74.1757 166.526 73.7335 166.231 73.313C165.963 72.9335 165.675 72.5688 165.368 72.2205C165.163 71.9615 164.895 71.7601 164.589 71.6359C164.07 71.4291 163.511 71.3459 162.955 71.3928C162.325 71.4958 161.709 71.6704 161.119 71.9132L160.916 71.5169L174.349 64.6321C175.314 64.1349 176.31 63.699 177.33 63.3272C178.301 62.9791 179.31 62.7445 180.335 62.6278C181.871 62.4283 183.433 62.6337 184.866 63.2235C186.32 63.8886 187.484 65.0567 188.145 66.5126C189.044 68.2663 189.204 69.9711 188.626 71.6269C187.973 73.3855 186.832 74.9214 185.337 76.0542L185.419 76.2141C186.445 75.8272 187.517 75.5746 188.608 75.4626C189.688 75.3425 190.781 75.4017 191.843 75.6379C192.873 75.8692 193.847 76.3032 194.709 76.9145C195.612 77.5626 196.342 78.4232 196.834 79.4203C197.297 80.2973 197.595 81.2517 197.714 82.2363ZM180.725 65.8336C179.619 65.1681 178.341 64.8432 177.051 64.8997C175.583 64.979 173.92 65.4954 172.059 66.4489C171.552 66.7055 171.059 66.9915 170.585 67.3054C170.251 67.5182 169.939 67.7629 169.652 68.0359C169.707 68.2094 169.756 68.3696 169.797 68.5164C169.851 68.6961 169.916 68.872 169.992 69.0433C170.081 69.2499 170.194 69.5032 170.331 69.803C170.481 70.0961 170.639 70.4861 170.863 70.9892C171.312 71.9308 171.816 72.9633 172.375 74.0868C172.934 75.2102 173.472 76.277 173.99 77.287L175.951 81.1131L178.182 79.9696C178.795 79.6555 179.284 79.4047 179.637 79.1735C181.959 77.8149 183.426 76.2083 184.036 74.3536C184.339 73.4548 184.453 72.5032 184.371 71.5585C184.289 70.6137 184.013 69.696 183.56 68.8627C182.937 67.5936 181.95 66.539 180.725 65.8336ZM190.913 80.2642C190.318 79.7191 189.643 79.2666 188.913 78.922C188.184 78.5763 187.406 78.3469 186.606 78.2422C185.783 78.1389 184.95 78.1511 184.131 78.2786C183.466 78.3944 182.813 78.5752 182.183 78.8185C181.478 79.0911 180.789 79.4036 180.119 79.7544L176.267 81.7291L178.827 86.7239C179.207 87.4654 179.564 88.1457 179.898 88.7649C180.219 89.3909 180.514 89.9168 180.746 90.3696C181.29 91.366 181.762 92.1724 182.162 92.7887C182.501 93.3481 182.987 93.803 183.568 94.1034C184.029 94.2857 184.529 94.3503 185.022 94.2914C185.805 94.18 186.56 93.9215 187.247 93.5295C188.084 93.095 188.895 92.6119 189.676 92.0828C190.539 91.498 191.286 90.7573 191.878 89.8987C192.662 88.8259 193.144 87.5624 193.274 86.24C193.369 84.8651 193.067 83.4918 192.403 82.2843C192.032 81.5266 191.527 80.8422 190.913 80.2642Z" fill="#FDCD01"/>
<path d="M168.429 61.1953L165.981 62.4498L168.896 68.1372L171.344 66.8828L168.429 61.1953Z" fill="#FDCD01"/>
<path d="M173.421 58.6369L170.973 59.8914L173.888 65.5788L176.336 64.3244L173.421 58.6369Z" fill="#FDCD01"/>
<path d="M191.149 215.502C191.148 216.94 191.432 218.364 191.985 219.69C192.538 221.017 193.349 222.221 194.37 223.231H189.584C188.172 223.231 186.774 222.952 185.469 222.411C184.164 221.869 182.979 221.075 181.981 220.074C180.982 219.074 180.19 217.886 179.65 216.578C179.109 215.271 178.831 213.869 178.831 212.454V37.733C178.831 36.3177 179.109 34.9163 179.65 33.6087C180.19 32.3012 180.982 31.1131 181.981 30.1124C182.979 29.1116 184.164 28.3178 185.469 27.7762C186.774 27.2346 188.172 26.9558 189.584 26.9558H196.548C194.906 27.9133 193.543 29.286 192.595 30.9368C191.648 32.5875 191.149 34.4586 191.149 36.3631L191.149 215.502Z" fill="#CACACA"/>
<path d="M544.31 252.5H0.689806C0.507193 252.499 0.332244 252.426 0.203304 252.297C0.0743643 252.167 0.00195312 251.992 0.00195312 251.809C0.00195312 251.626 0.0743643 251.45 0.203304 251.32C0.332244 251.191 0.507193 251.118 0.689806 251.117H544.31C544.493 251.117 544.669 251.19 544.798 251.32C544.927 251.449 545 251.625 545 251.809C545 251.992 544.927 252.168 544.798 252.297C544.669 252.427 544.493 252.5 544.31 252.5Z" fill="#CACACA"/>
<path d="M189.99 74.9852V132.944C190.378 132.817 190.766 132.695 191.148 132.579V75.5136C190.76 75.3336 190.378 75.1594 189.99 74.9852ZM189.99 74.9852V132.944C190.378 132.817 190.766 132.695 191.148 132.579V75.5136C190.76 75.3336 190.378 75.1594 189.99 74.9852ZM189.99 74.9852V132.944C190.378 132.817 190.766 132.695 191.148 132.579V75.5136C190.76 75.3336 190.378 75.1594 189.99 74.9852ZM189.99 79.2185V146.004C190.378 145.911 190.766 145.824 191.148 145.737V79.5495C190.76 79.4333 190.372 79.323 189.99 79.2185ZM189.99 79.2185V146.004C190.378 145.911 190.766 145.824 191.148 145.737V79.5495C190.76 79.4333 190.372 79.323 189.99 79.2185ZM189.99 79.2185V146.004C190.378 145.911 190.766 145.824 191.148 145.737V79.5495C190.76 79.4333 190.372 79.323 189.99 79.2185ZM189.99 79.2185V146.004C190.378 145.911 190.766 145.824 191.148 145.737V79.5495C190.76 79.4333 190.372 79.323 189.99 79.2185ZM189.99 79.2185V146.608C190.378 146.515 190.76 146.422 191.148 146.335V79.5495C190.76 79.4333 190.372 79.323 189.99 79.2185ZM442.74 24.3079H202.018C198.829 24.3132 195.773 25.585 193.519 27.8446C191.264 30.1043 189.995 33.1675 189.99 36.3631V215.502C189.995 218.697 191.264 221.76 193.519 224.018C195.774 226.277 198.83 227.548 202.018 227.551H442.74C445.928 227.548 448.983 226.277 451.237 224.018C453.491 221.759 454.758 218.696 454.762 215.502V36.3631C454.76 33.1677 453.492 30.1038 451.239 27.8438C448.985 25.5837 445.928 24.3121 442.74 24.3079ZM453.604 215.502C453.601 218.389 452.455 221.156 450.418 223.198C448.382 225.239 445.62 226.387 442.74 226.39H202.018C199.137 226.387 196.375 225.24 194.337 223.198C192.299 221.157 191.153 218.389 191.148 215.502V36.3631C191.153 33.4752 192.299 30.7068 194.337 28.6648C196.374 26.6227 199.136 25.4736 202.018 25.4693H442.74C445.621 25.4726 448.383 26.6216 450.42 28.664C452.457 30.7065 453.602 33.4754 453.604 36.3631V215.502ZM189.99 79.2185V145.418C190.378 145.325 190.76 145.232 191.148 145.139V79.5495C190.76 79.4333 190.372 79.323 189.99 79.2185ZM189.99 79.2185V146.004C190.378 145.911 190.766 145.824 191.148 145.737V79.5495C190.76 79.4333 190.372 79.323 189.99 79.2185ZM189.99 79.2185V146.004C190.378 145.911 190.766 145.824 191.148 145.737V79.5495C190.76 79.4333 190.372 79.323 189.99 79.2185ZM189.99 79.2185V146.004C190.378 145.911 190.766 145.824 191.148 145.737V79.5495C190.76 79.4333 190.372 79.323 189.99 79.2185ZM189.99 74.9852V132.944C190.378 132.817 190.766 132.695 191.148 132.579V75.5136C190.76 75.3336 190.378 75.1594 189.99 74.9852ZM189.99 74.9852V132.944C190.378 132.817 190.766 132.695 191.148 132.579V75.5136C190.76 75.3336 190.378 75.1594 189.99 74.9852Z" fill="#2F2E41"/>
<path d="M138.383 136.31C138.156 135.779 137.815 135.304 137.386 134.92C136.956 134.535 136.447 134.249 135.895 134.083C135.343 133.917 134.762 133.874 134.192 133.957C133.621 134.041 133.076 134.248 132.595 134.566L121.488 126.012L120.963 133.288L131.591 140.296C132.176 141.071 133.025 141.604 133.977 141.794C134.928 141.984 135.916 141.818 136.753 141.326C137.591 140.835 138.219 140.053 138.519 139.128C138.82 138.204 138.771 137.201 138.383 136.31Z" fill="#FFB6B6"/>
<path d="M93.6261 84.6872L89.9712 82.9559C89.9712 82.9559 84.0834 84.6159 86.9439 92.4195L104.255 124.743L125.39 137.145L131.978 131.293L110.828 114.52L93.6261 84.6872Z" fill="#3F3D56"/>
<rect x="191" y="38" width="35" height="134" fill="#E4E4E4"/>
</g>
<defs>
<linearGradient id="paint0_linear_41_6218" x1="126.808" y1="52.282" x2="255.249" y2="323.235" gradientUnits="userSpaceOnUse">
<stop stop-color="white" stop-opacity="0"/>
<stop offset="0.95" stop-color="white"/>
</linearGradient>
<linearGradient id="paint1_linear_41_6218" x1="123.549" y1="37.517" x2="272.506" y2="351.748" gradientUnits="userSpaceOnUse">
<stop stop-color="white" stop-opacity="0"/>
<stop offset="0.95" stop-color="white"/>
</linearGradient>
<linearGradient id="paint2_linear_41_6218" x1="106.697" y1="19.7677" x2="344.585" y2="202.31" gradientUnits="userSpaceOnUse">
<stop stop-color="white" stop-opacity="0"/>
<stop offset="0.95" stop-color="white"/>
</linearGradient>
<linearGradient id="paint3_linear_41_6218" x1="97.0616" y1="8.11441" x2="372.947" y2="219.812" gradientUnits="userSpaceOnUse">
<stop stop-color="white" stop-opacity="0"/>
<stop offset="0.95" stop-color="white"/>
</linearGradient>
<clipPath id="clip0_41_6218">
<rect width="545" height="252" fill="white" transform="translate(0 0.5)"/>
</clipPath>
</defs>
</svg>
