<svg viewBox="0 0 418 340" fill="none" xmlns="http://www.w3.org/2000/svg">
<g clip-path="url(#clip0_134_4827)">
<path opacity="0.18" d="M172.369 49.2232C147.795 69.6753 127.993 95.7597 101.856 114.264C77.6817 131.313 48.5011 141.533 27.6998 162.537C9.9344 180.468 -0.0212429 204.677 -0.00143534 229.899C0.0183722 255.121 10.012 279.315 27.8056 297.218C52.6849 322.246 89.4691 331.68 124.737 333.534C160.005 335.388 195.368 330.777 230.636 332.666C264.012 334.461 297.2 342.053 330.529 339.542C363.858 337.031 399.15 321.343 412.312 290.682C426.885 256.748 410.185 218.566 398.668 183.494C389.974 156.974 384.236 129.578 381.557 101.803C377.561 60.253 370.204 2.5577 317.837 0.257861C265.822 -2.10064 212.244 15.9812 172.369 49.2232Z" fill="#036672"/>
<path d="M312.595 280.157C314.757 281.26 315.075 284.429 313.852 286.505C312.63 288.582 310.327 289.826 308.176 290.847C303 293.245 297.567 295.044 291.982 296.209C289.455 296.749 286.106 298.181 286.74 300.692C287.199 302.698 289.796 303.179 291.852 303.214C322.408 303.684 352.623 295.494 383.167 296.174C385.188 296.174 387.433 296.397 388.819 297.876C390.57 299.741 390.1 302.745 389.113 305.104C383.66 318.199 367.959 323.303 353.927 325.567C321.973 330.742 289.373 329.264 257.007 328.9C192.547 328.196 127.91 331.986 63.6847 326.377C62.3245 326.38 60.9902 326.006 59.83 325.298C58.6852 324.285 57.9812 322.866 57.8673 321.343C56.7744 313.54 63.0265 306.207 70.3834 303.355C77.7402 300.504 85.9079 301.008 93.7819 301.583C127.146 303.93 160.652 305.925 194.004 303.414C215.848 301.957 237.454 298.02 258.406 291.68C268.031 288.688 277.773 282.798 287.61 281.002C290.642 280.451 293.721 280.826 296.777 280.674C301.219 280.451 308.458 278.057 312.595 280.157Z" fill="url(#paint0_linear_134_4827)"/>
<path d="M0 224.093C0.117521 228.024 2.05662 231.638 3.99573 235.064C12.8216 250.612 22.6934 265.912 36.3259 277.459C56.3985 294.414 82.688 301.712 108.073 308.565C105.793 307.462 103.066 295.787 102.056 293.217C100.093 288.183 98.2596 283.103 96.3675 278.057C93.3942 270.066 87.1186 263.636 81.0897 257.757C67.2735 244.493 50.5142 234.675 32.1774 229.103C21.7412 225.93 10.9085 224.243 0 224.093Z" fill="#036672"/>
<path d="M0 224.093C0.117521 228.024 2.05662 231.638 3.99573 235.064C12.8216 250.612 22.6934 265.912 36.3259 277.459C56.3985 294.414 82.688 301.712 108.073 308.565C105.793 307.462 103.066 295.787 102.056 293.217C100.093 288.183 98.2596 283.103 96.3675 278.057C93.3942 270.066 87.1186 263.636 81.0897 257.757C67.2735 244.493 50.5142 234.675 32.1774 229.103C21.7412 225.93 10.9085 224.243 0 224.093Z" fill="url(#paint1_linear_134_4827)"/>
<path d="M99.3174 232.776C97.2491 218.32 95.1219 203.664 89.2929 190.264C83.4638 176.864 73.3687 164.72 59.654 159.58L58.4788 221.711C58.2437 233.668 58.0439 245.859 61.4756 257.323C67.5162 277.412 88.435 300.985 108.602 307.626C111.587 297.969 106.569 283.361 105.076 273.34L99.3174 232.776Z" fill="#036672"/>
<path d="M349.344 214.119C349.238 218.038 347.287 221.664 345.348 225.079C336.546 240.626 326.662 255.939 313.006 267.473C292.934 284.428 266.656 291.739 241.318 298.579C243.587 297.476 246.313 285.801 247.324 283.232C249.286 278.198 251.12 273.129 253.012 268.071C255.985 260.081 262.261 253.662 268.36 247.784C282.149 234.52 298.886 224.701 317.202 219.13C327.624 215.946 338.446 214.259 349.344 214.119Z" fill="#036672"/>
<path d="M349.344 214.119C349.238 218.038 347.287 221.664 345.348 225.079C336.546 240.626 326.662 255.939 313.006 267.473C292.934 284.428 266.656 291.739 241.318 298.579C243.587 297.476 246.313 285.801 247.324 283.232C249.286 278.198 251.12 273.129 253.012 268.071C255.985 260.081 262.261 253.662 268.36 247.784C282.149 234.52 298.886 224.701 317.202 219.13C327.624 215.946 338.446 214.259 349.344 214.119Z" fill="url(#paint2_linear_134_4827)"/>
<path d="M250.027 222.814C252.095 208.358 254.222 193.691 260.051 180.302C265.88 166.914 275.975 154.699 289.69 149.607C290.09 170.321 290.481 191.027 290.865 211.726C291.089 223.694 291.3 235.886 287.857 247.35C281.828 267.438 260.897 291.011 240.742 297.641C237.746 287.996 242.764 273.375 244.198 263.355L250.027 222.814Z" fill="#036672"/>
<path d="M229.143 20.4638L120.354 31.1533C109.119 32.2563 99.999 41.7138 99.999 52.2156V295.752C99.999 306.312 109.119 313.916 120.354 312.813L229.143 302.123C240.39 301.02 249.51 291.563 249.51 281.073V37.5366C249.51 26.9996 240.39 19.3608 229.143 20.4638ZM239.121 281.589C239.121 288.078 233.503 293.886 226.581 294.567L120.871 304.951C113.937 305.632 108.32 300.926 108.32 294.391V51.4998C108.32 45.011 113.937 39.2028 120.871 38.5222L136.713 36.9616V38.4049C136.713 42.5586 140.309 45.5742 144.739 45.1401L203.206 39.4726C205.326 39.2935 207.309 38.3529 208.787 36.8253C210.265 35.2976 211.139 33.2866 211.245 31.1651V29.7805L226.523 28.2785C233.445 27.598 239.062 32.3033 239.062 38.839L239.121 281.589Z" fill="#036672"/>
<path d="M234.267 24.958L125.466 35.6475C114.231 36.7505 105.111 46.208 105.111 56.7684V300.246C105.111 310.806 114.231 318.41 125.466 317.307L234.267 306.629C245.502 305.526 254.622 296.069 254.622 285.567V42.0307C254.622 31.5054 245.514 23.9136 234.267 24.958ZM244.245 286.083C244.245 292.572 238.627 298.38 231.694 299.061L125.924 309.445C118.991 310.126 113.373 305.42 113.373 298.885V55.994C113.373 49.5052 118.991 43.6852 125.924 43.0046L141.825 41.5144V42.9459C141.825 47.0997 145.421 50.1153 149.852 49.6812L208.33 43.9433C210.444 43.7571 212.42 42.8154 213.895 41.2915C215.369 39.7675 216.244 37.7634 216.357 35.6475V34.2277L231.694 32.714C238.627 32.0335 244.245 36.7505 244.245 43.2745V286.083Z" fill="white"/>
<path d="M244.245 43.2392V286.13C244.245 292.619 238.627 298.427 231.694 299.108L125.924 309.492C118.991 310.173 113.373 305.467 113.373 298.932V56.0409C113.373 49.5521 118.991 43.7321 125.924 43.0515L141.825 41.5144V42.9459C141.825 47.0997 145.421 50.1153 149.852 49.6811L208.33 43.9433C210.444 43.757 212.42 42.8154 213.895 41.2914C215.369 39.7674 216.244 37.7634 216.357 35.6474V34.2276L231.694 32.714C238.627 32.0334 244.245 36.7504 244.245 43.2392Z" stroke="url(#paint3_linear_134_4827)" stroke-width="0.63" stroke-miterlimit="10"/>
<path d="M244.245 43.2392V286.13C244.245 292.619 238.627 298.427 231.694 299.108L125.924 309.492C118.991 310.173 113.373 305.467 113.373 298.932V56.0409C113.373 49.5521 118.991 43.7321 125.924 43.0515L141.825 41.5144V42.9459C141.825 47.0997 145.421 50.1153 149.852 49.6811L208.33 43.9433C210.444 43.757 212.42 42.8154 213.895 41.2914C215.369 39.7674 216.244 37.7634 216.357 35.6474V34.2276L231.694 32.714C238.627 32.0334 244.245 36.7504 244.245 43.2392Z" fill="#036672"/>
<path d="M208.142 273.704L155.023 278.785C154.274 278.846 153.521 278.752 152.81 278.508C152.1 278.264 151.448 277.876 150.896 277.367C150.343 276.859 149.903 276.242 149.602 275.555C149.301 274.867 149.146 274.125 149.146 273.375V260.104C149.146 258.739 149.655 257.422 150.574 256.411C151.493 255.4 152.756 254.768 154.118 254.636L207.214 249.556C207.968 249.483 208.729 249.57 209.448 249.809C210.167 250.048 210.827 250.435 211.388 250.945C211.948 251.454 212.395 252.075 212.7 252.767C213.005 253.46 213.162 254.208 213.16 254.965V268.236C213.157 269.608 212.641 270.929 211.712 271.941C210.784 272.952 209.511 273.581 208.142 273.704Z" fill="url(#paint4_linear_134_4827)"/>
<path d="M187.059 40.7868L166.962 42.7581V41.0919L187.059 39.1206V40.7868Z" fill="url(#paint5_linear_134_4827)"/>
<path d="M193.364 40.8928C194.434 40.2681 194.85 38.9907 194.293 38.0397C193.736 37.0886 192.417 36.824 191.347 37.4486C190.277 38.0733 189.861 39.3507 190.417 40.3018C190.974 41.2529 192.293 41.5175 193.364 40.8928Z" fill="url(#paint6_linear_134_4827)"/>
<path d="M139.744 227.038L216.38 219.705C218.964 219.472 221.366 218.277 223.108 216.357C224.849 214.438 225.804 211.934 225.782 209.344V123.018C225.769 121.448 225.433 119.899 224.793 118.465C224.153 117.032 223.224 115.746 222.063 114.687C220.903 113.629 219.536 112.821 218.049 112.314C216.561 111.807 214.985 111.612 213.419 111.741L136.783 119.075C134.2 119.305 131.799 120.497 130.056 122.415C128.314 124.333 127.359 126.835 127.381 129.424V215.762C127.394 217.331 127.73 218.881 128.37 220.314C129.01 221.748 129.939 223.034 131.1 224.092C132.26 225.151 133.627 225.959 135.114 226.466C136.602 226.972 138.178 227.167 139.744 227.038Z" fill="#C9D9DF"/>
<path d="M144.269 228.258L220.905 220.925C223.488 220.695 225.889 219.502 227.632 217.585C229.374 215.667 230.329 213.165 230.307 210.576V124.238C230.294 122.669 229.958 121.119 229.318 119.685C228.678 118.252 227.749 116.966 226.588 115.908C225.428 114.849 224.061 114.041 222.574 113.534C221.086 113.027 219.51 112.832 217.944 112.962L141.308 120.295C138.724 120.528 136.322 121.723 134.58 123.643C132.839 125.562 131.884 128.066 131.906 130.656V216.982C131.919 218.551 132.255 220.101 132.895 221.535C133.535 222.968 134.464 224.254 135.625 225.313C136.785 226.371 138.152 227.179 139.639 227.686C141.127 228.193 142.703 228.388 144.269 228.258Z" fill="url(#paint7_linear_134_4827)"/>
<path d="M147.219 136.113L174.719 133.907V161.469L147.219 163.675V136.113ZM170.159 157.234V138.905L151.779 140.384V158.818L170.159 157.234Z" fill="#473F47"/>
<path d="M193.264 132.393L220.741 130.187V157.773L193.264 160.026V132.393ZM216.193 153.584V135.15L197.8 136.629V155.063L216.193 153.584Z" fill="#473F47"/>
<path d="M174.719 207.607L147.219 209.813V182.32L174.719 180.115V207.607ZM151.756 204.873L170.183 203.441V185.019L151.756 186.498V204.873Z" fill="#473F47"/>
<path d="M183.945 137.732L188.528 137.368V146.532L183.98 146.896V151.472L179.456 151.836V133.531L183.945 133.167V137.732Z" fill="#473F47"/>
<path d="M220.752 171.619L211.656 172.347V167.771L202.466 168.498V163.981L220.752 162.514V171.619Z" fill="#473F47"/>
<path d="M216.204 190.534V195.063L220.741 194.7V203.864L211.68 204.591V190.933L216.204 190.534Z" fill="#473F47"/>
<path d="M156.339 167.677V172.218L160.899 171.854V176.454L147.231 177.557V168.451L156.339 167.677Z" fill="#473F47"/>
<path d="M183.98 165.424L197.706 164.321V173.485L188.563 174.224V169.531L183.98 169.894V165.318V165.424Z" fill="#473F47"/>
<path d="M193.264 178.495L197.812 178.132V173.579L206.932 172.84V181.945L193.264 183.036V178.495Z" fill="#473F47"/>
<path d="M188.563 174.224V183.388L179.42 184.127V174.963L188.61 174.224H188.563Z" fill="#473F47"/>
<path d="M188.551 197.399L191.019 197.152L197.048 196.671H197.73V205.788L188.61 206.527V198.079C188.61 197.856 188.61 197.645 188.61 197.422L188.551 197.399Z" fill="#473F47"/>
<path d="M179.42 174.963L170.265 175.691V171.138L174.79 170.774V166.163L179.408 165.787V174.999L179.42 174.963Z" fill="#473F47"/>
<path d="M220.752 185.442L216.251 185.805V181.241L211.691 181.605V177.064L220.752 176.336V185.442Z" fill="#473F47"/>
<path d="M184.015 197.727V193.033L179.456 193.397V188.891L188.552 188.164V197.375C187.847 197.375 187.153 197.375 186.46 197.469C185.766 197.563 184.815 197.633 183.992 197.715L184.015 197.727Z" fill="#473F47"/>
<path d="M184.027 160.836V151.625L188.528 151.261V160.46L184.003 160.824L184.027 160.836Z" fill="#473F47"/>
<path d="M184.004 197.715V206.105V206.856L179.479 207.22V198.103L184.051 197.727L184.004 197.715Z" fill="#473F47"/>
<path d="M170.112 166.574V171.068L161.051 171.795V167.301L170.112 166.574Z" fill="#473F47"/>
<path d="M202.466 191.52V187.014L211.538 186.286V190.757L202.466 191.52Z" fill="#473F47"/>
<path d="M202.466 205.366V196.284L206.932 195.92V205.002L202.466 205.366Z" fill="#473F47"/>
<path d="M179.408 165.788V161.2L184.027 160.824C184.027 162.361 184.027 163.887 184.027 165.424L179.42 165.799L179.408 165.788Z" fill="#473F47"/>
<path d="M193.252 192.259V187.777L197.718 187.425V191.895L193.252 192.259Z" fill="#473F47"/>
<path d="M188.646 188.011V183.494L193.123 183.13V187.612L188.646 188.011Z" fill="#473F47"/>
<path d="M202.325 196.155L197.871 196.518V192.024L202.325 191.661V196.155Z" fill="#473F47"/>
<path d="M165.518 143.88L156.433 144.608V153.69L165.518 152.962V143.88Z" fill="#473F47"/>
<path d="M211.539 149.29V140.184L202.49 140.912V150.017L211.539 149.29Z" fill="#473F47"/>
<path d="M156.409 199.839L165.494 199.112V190.018L156.409 190.745V199.839Z" fill="#473F47"/>
<path d="M165.518 143.88V152.986L156.433 153.713V144.631L165.518 143.88Z" fill="#473F47"/>
<path d="M211.539 149.29L202.49 150.017V140.912L211.539 140.184V149.29Z" fill="#473F47"/>
<path d="M156.409 199.839V190.745L165.494 190.018V199.112L156.409 199.839Z" fill="#473F47"/>
<path d="M210.798 271.944L157.702 277.013C156.948 277.086 156.188 277.002 155.469 276.764C154.75 276.526 154.089 276.14 153.529 275.632C152.968 275.123 152.521 274.503 152.216 273.811C151.91 273.119 151.753 272.371 151.755 271.615V258.344C151.755 256.979 152.264 255.662 153.183 254.651C154.102 253.64 155.365 253.007 156.727 252.876L209.823 247.795C210.577 247.723 211.338 247.81 212.057 248.049C212.776 248.288 213.436 248.675 213.996 249.184C214.557 249.694 215.004 250.315 215.309 251.007C215.614 251.7 215.771 252.448 215.769 253.205V266.476C215.77 267.841 215.261 269.158 214.342 270.169C213.423 271.18 212.159 271.812 210.798 271.944Z" fill="white"/>
<path d="M167.527 266.206L169.713 265.995C169.717 266.106 169.745 266.215 169.796 266.315C169.847 266.414 169.919 266.501 170.007 266.57C170.245 266.718 170.528 266.776 170.806 266.734C171.083 266.712 171.351 266.619 171.581 266.464C171.685 266.4 171.77 266.31 171.828 266.203C171.886 266.096 171.914 265.975 171.91 265.854C171.918 265.795 171.918 265.736 171.91 265.678C171.843 265.591 171.759 265.52 171.664 265.467C171.471 265.354 171.26 265.274 171.041 265.232L169.995 264.997C169.585 264.93 169.189 264.799 168.82 264.61C168.533 264.471 168.286 264.261 168.103 264C167.835 263.618 167.692 263.163 167.691 262.697C167.685 262.323 167.761 261.951 167.913 261.609C168.066 261.267 168.291 260.961 168.573 260.714C169.194 260.168 169.979 259.842 170.806 259.787C171.581 259.669 172.373 259.854 173.015 260.304C173.3 260.521 173.527 260.805 173.676 261.13C173.826 261.455 173.893 261.812 173.873 262.169L171.711 262.369C171.711 261.841 171.405 261.606 170.782 261.665C170.531 261.671 170.288 261.757 170.089 261.911C170.011 261.973 169.949 262.052 169.906 262.141C169.863 262.231 169.842 262.328 169.842 262.428C169.842 262.733 170.112 262.944 170.665 263.049L171.687 263.272C173.332 263.601 174.155 264.446 174.155 265.619C174.165 266.185 173.978 266.736 173.626 267.18C173.3 267.601 172.871 267.932 172.381 268.142C171.897 268.356 171.38 268.487 170.853 268.529C170.034 268.653 169.198 268.473 168.502 268.025C168.201 267.827 167.953 267.557 167.783 267.239C167.613 266.921 167.525 266.566 167.527 266.206Z" fill="#036672"/>
<path d="M181.617 264.457L183.392 265.478C182.981 266.124 182.426 266.666 181.77 267.062C181.116 267.47 180.376 267.719 179.608 267.79C179.034 267.861 178.451 267.81 177.898 267.64C177.345 267.47 176.834 267.185 176.399 266.804C175.97 266.437 175.629 265.979 175.399 265.463C175.169 264.948 175.057 264.388 175.071 263.824C175.073 262.616 175.55 261.457 176.399 260.597C177.228 259.683 178.376 259.12 179.608 259.025C180.348 258.942 181.097 259.051 181.782 259.341C182.429 259.618 182.989 260.064 183.404 260.632L181.606 261.993C181.398 261.681 181.104 261.437 180.76 261.289C180.392 261.122 179.986 261.057 179.584 261.102C178.942 261.155 178.344 261.454 177.915 261.935C177.475 262.387 177.23 262.994 177.234 263.624C177.223 263.919 177.278 264.212 177.396 264.482C177.514 264.753 177.692 264.993 177.915 265.185C178.14 265.386 178.405 265.536 178.693 265.625C178.981 265.714 179.285 265.74 179.584 265.701C180.002 265.671 180.406 265.538 180.76 265.314C181.107 265.098 181.401 264.805 181.617 264.457Z" fill="#036672"/>
<path d="M190.185 266.652L189.433 264.763L186.636 265.021L185.884 267.051L183.533 267.262L186.824 258.415L189.174 258.203L192.441 266.417L190.185 266.652ZM188.011 260.292L187.212 263.179L188.88 263.026L188.011 260.292Z" fill="#036672"/>
<path d="M197.941 257.417L200.092 257.218V265.772L198.212 265.936L195.485 261.524V266.218L193.323 266.417V257.863L195.274 257.687L197.941 262.04V257.417Z" fill="#036672"/>
<path d="M281.51 138.33L223.866 111.694L129.497 123.088L131.894 223.624L139.744 227.038L225.77 220.15L230.295 210.576L280.653 142.273L281.51 138.33Z" fill="url(#paint8_linear_134_4827)"/>
<path d="M279.266 144.491V136.066C279.265 135.787 279.339 135.512 279.479 135.271C279.62 135.03 279.822 134.83 280.065 134.693L284.766 132.076C285.26 131.795 287.211 132.933 287.211 133.496L285.883 147.952L282.58 150.498L279.278 148.562L279.266 144.491Z" fill="white"/>
<path d="M279.266 144.491V136.066C279.265 135.787 279.339 135.512 279.479 135.271C279.62 135.03 279.822 134.83 280.065 134.693L284.766 132.076C285.26 131.795 287.211 132.933 287.211 133.496L285.883 147.952L282.58 150.498L279.278 148.562L279.266 144.491Z" fill="url(#paint9_linear_134_4827)"/>
<path d="M280.653 145.535V137.098C280.652 136.821 280.725 136.548 280.866 136.309C281.006 136.069 281.209 135.872 281.452 135.737L286.153 133.109C286.266 133.046 286.394 133.014 286.524 133.015C286.654 133.016 286.782 133.051 286.894 133.116C287.007 133.181 287.1 133.274 287.166 133.386C287.232 133.498 287.267 133.624 287.269 133.754V149.008L283.967 151.543L280.665 149.618L280.653 145.535Z" fill="white"/>
<path d="M281.511 145.183V138.33L286.858 134.963V146.298L285.683 150.111L283.191 150.933C283.191 150.933 281.863 150.369 281.863 150.193" fill="#036672"/>
<path d="M356.254 207.595L355.549 208.546L358.088 172.452L358.593 165.201L358.84 161.681L360.168 164.532C362.659 169.777 367.83 180.748 369.276 183.752C370.933 187.202 359.275 203.441 356.254 207.595Z" fill="white"/>
<path opacity="0.1" d="M356.254 207.595C355.961 206.903 355.852 206.148 355.937 205.401C356.247 203.753 356.957 202.206 358.005 200.895C360.802 196.788 364.304 192.435 365.914 187.671C368.03 181.37 361.096 177.463 358.087 172.417C357.318 171.236 356.861 169.88 356.759 168.475C356.709 167.805 356.856 167.135 357.182 166.547C357.507 165.959 357.998 165.479 358.593 165.166C359.081 164.863 359.612 164.634 360.168 164.485C362.659 169.73 367.83 180.701 369.275 183.705C370.932 187.202 359.274 203.441 356.254 207.595Z" fill="#020202"/>
<path d="M339.038 306.899C337.92 307.409 336.997 308.265 336.405 309.339C336.282 309.578 336.245 309.851 336.299 310.114C336.385 310.308 336.513 310.482 336.674 310.622C336.834 310.761 337.023 310.865 337.228 310.924C340.189 312.097 343.539 311.874 346.629 311.311C349.732 310.552 352.9 310.092 356.09 309.938C356.36 309.981 356.636 309.966 356.9 309.893C357.164 309.82 357.408 309.691 357.618 309.515C357.814 309.221 357.909 308.871 357.888 308.518C358.016 305.749 357.535 302.985 356.478 300.422C356.548 300.586 348.098 300.926 347.37 301.419C346.03 302.346 344.914 303.531 343.48 304.388C342.046 305.244 340.53 306.054 339.038 306.899Z" fill="#282328"/>
<path d="M350.273 246.505C350.215 257.305 351.065 268.091 352.811 278.749C353.093 280.603 353.399 282.446 353.775 284.288C356.548 297.899 356.772 301.361 356.772 301.361H345.63C345.63 301.361 337.404 262.815 334.348 254.038C332.037 247.386 330.234 240.569 328.954 233.644C328.455 230.363 328.862 227.008 330.129 223.941C330.559 222.731 331.174 221.595 331.951 220.573C333.465 218.904 335.36 217.624 337.474 216.842C341.973 214.81 346.84 213.716 351.777 213.627C352.341 213.579 352.906 213.701 353.399 213.979C353.714 214.237 353.964 214.567 354.127 214.941C355.573 217.874 355.302 221.324 354.856 224.562C354.662 226.361 354.267 228.132 353.681 229.843C353.023 231.591 351.988 233.175 351.389 234.947C350.879 236.653 350.579 238.414 350.496 240.192C350.425 242.292 350.32 244.393 350.273 246.505Z" fill="#282328"/>
<path d="M322.35 237.986C322.584 239.389 322.675 240.812 322.62 242.234C322.573 244.782 322.655 247.332 322.867 249.872C323.489 261.97 325.323 274.021 325.335 286.13C325.335 296.456 324.994 307.251 324.994 307.251C324.994 307.251 334.008 310.02 336.088 307.943L339.555 258.074C340.083 254.308 340.894 250.482 341.165 246.692C341.4 243.395 341.47 240.603 342.704 237.434C344.091 233.914 346.065 230.594 347.135 226.933C347.827 224.588 348.125 222.146 348.016 219.705C348.05 218.956 347.845 218.216 347.429 217.592C347.018 217.168 346.515 216.843 345.96 216.642C339.719 213.873 333.244 211.057 326.416 211.115C325.865 211.07 325.313 211.188 324.829 211.456C324.369 211.836 324.037 212.348 323.877 212.922C321.366 219.541 320.593 226.691 321.633 233.691C321.903 235.205 322.138 236.59 322.35 237.986Z" fill="#473F47"/>
<path d="M288.691 152.986C288.421 151.402 288.456 149.747 288.315 148.14C288.309 147.509 288.139 146.89 287.822 146.345C287.653 146.078 287.397 145.877 287.097 145.777C286.798 145.676 286.472 145.682 286.176 145.793C285.448 146.157 285.424 147.154 285.448 147.964C285.471 148.773 285.26 149.806 284.461 149.959C284.16 149.988 283.857 149.927 283.591 149.783C283.192 149.569 282.849 149.266 282.588 148.898C282.327 148.529 282.155 148.105 282.087 147.659C282.016 147.131 282.087 146.579 281.993 146.051C281.687 144.526 279.713 144.784 278.796 145.582C278.256 146.103 277.818 146.72 277.503 147.401C276.839 148.554 276.352 149.8 276.058 151.097C275.082 156.389 281.476 157.527 284.179 160.906C284.567 161.431 285 161.921 285.471 162.373C285.93 162.766 286.484 163.031 287.079 163.143C287.673 163.254 288.286 163.207 288.856 163.007C289.423 162.798 289.924 162.442 290.309 161.976C290.693 161.51 290.946 160.951 291.042 160.355C291.359 158.383 289.925 156.612 289.22 154.734C288.989 154.169 288.812 153.584 288.691 152.986Z" fill="#FFBBAB"/>
<path d="M334.654 139.234C334.764 139.383 334.847 139.55 334.901 139.727C334.983 140.086 334.983 140.459 334.901 140.818C334.424 142.94 334.098 145.092 333.925 147.26C333.834 147.867 333.95 148.487 334.254 149.02C334.74 149.535 335.404 149.846 336.111 149.888C337.141 150.053 338.183 150.123 339.226 150.099C339.637 150.099 340.142 150.099 340.401 150.44C340.488 150.594 340.537 150.767 340.542 150.944C340.59 151.753 340.433 152.56 340.084 153.291C339.87 153.644 339.763 154.052 339.778 154.464C339.86 155.215 340.953 155.145 341.517 155.18C343.656 155.286 345.807 155.297 347.946 155.18C348.315 155.196 348.683 155.119 349.015 154.957C349.591 154.617 349.72 153.854 349.885 153.209C350.613 150.217 352.929 147.893 354.174 145.077C354.816 143.577 355.153 141.965 355.167 140.333C355.182 138.702 354.872 137.084 354.257 135.573C353.665 134.133 352.821 132.81 351.765 131.666C350.801 130.598 348.945 130.375 347.605 130.093C345.254 129.6 342.646 129.46 340.554 130.715C338.203 132.123 337.122 135.01 334.76 136.359C334.349 136.594 333.843 136.828 333.702 137.286C333.666 137.518 333.686 137.756 333.762 137.979C333.838 138.202 333.966 138.403 334.137 138.565C334.29 138.8 334.49 138.999 334.654 139.234Z" fill="#FFBBAB"/>
<path d="M341.2 129.894C341.252 130.257 341.363 130.61 341.529 130.938C342.281 132.499 343.268 132.111 344.62 132.311C346.265 132.604 347.334 134.446 347.675 135.948C347.969 137.769 347.909 139.63 347.499 141.428C347.861 141.13 348.307 140.953 348.775 140.922C349.243 140.89 349.709 141.006 350.108 141.252C350.496 141.522 350.798 141.898 350.977 142.335C351.157 142.772 351.206 143.252 351.119 143.716C351.021 144.183 350.796 144.613 350.468 144.959C350.141 145.305 349.723 145.553 349.262 145.676C348.803 145.793 348.263 145.817 347.981 146.192C347.828 146.463 347.762 146.774 347.793 147.084C347.793 149.079 347.875 151.249 349.144 152.798C350.907 152.622 352.247 151.214 353.563 150.041C355.432 148.375 357.571 147.013 359.369 145.265C361.275 143.595 362.458 141.252 362.671 138.729C362.73 134.681 359.145 131.56 357.829 127.746C357.594 126.888 357.283 126.051 356.901 125.247C356.548 124.695 356.084 124.222 355.538 123.86C354.992 123.497 354.376 123.253 353.729 123.143C353.083 123.032 352.421 123.058 351.785 123.218C351.149 123.379 350.554 123.67 350.037 124.074C349.09 123.451 347.981 123.12 346.847 123.12C345.713 123.12 344.603 123.451 343.656 124.074C342.788 124.758 342.108 125.651 341.679 126.668C341.249 127.686 341.084 128.796 341.2 129.894Z" fill="#FC682D"/>
<path d="M358.405 174.412C357.919 178.193 357.762 182.009 357.935 185.817C358.041 189.537 358.217 193.233 358.37 196.953C357.653 200.156 356.854 203.359 356.019 206.527C355.489 209.115 354.616 211.621 353.422 213.978C352.82 215.112 352.024 216.133 351.072 216.994C350.133 217.817 349.065 218.479 347.91 218.954C345.197 219.957 342.297 220.357 339.413 220.127C337.38 220.047 335.362 219.74 333.396 219.212C330.871 218.582 328.526 217.377 326.545 215.692C325.55 214.804 324.68 213.785 323.959 212.664C322.233 209.902 321.189 206.768 320.916 203.524C320.325 198.197 321.014 192.808 322.925 187.8C323.031 187.507 323.148 187.225 323.266 186.932C324.077 184.867 324.888 182.802 325.722 180.736C325.722 180.736 325.722 180.678 325.722 180.654C325.851 180.326 325.981 180.021 326.098 179.704L326.169 179.528L325.71 179.716L325.229 179.892C325.076 179.953 324.918 180.004 324.758 180.044C324.418 180.173 324.053 180.267 323.713 180.361L322.537 180.654C321.867 180.795 321.186 180.924 320.504 181.006L319.576 181.112C311.032 181.863 301.713 178.413 294.567 174.6C292.235 173.415 290.102 171.875 288.245 170.035C287.858 169.625 287.493 169.194 287.152 168.744C286.296 167.62 285.666 166.341 285.295 164.978C285.036 164.153 285.036 163.269 285.295 162.443C285.312 162.41 285.331 162.379 285.354 162.349C285.611 161.785 285.969 161.272 286.411 160.836C287.497 159.648 288.647 158.52 289.855 157.456L290.231 157.128C290.555 156.844 290.935 156.632 291.347 156.506C291.753 156.415 292.174 156.415 292.58 156.504C292.986 156.593 293.367 156.77 293.698 157.022C294.298 157.441 294.857 157.917 295.366 158.442C298.629 161.548 302.499 163.947 306.733 165.49C310.968 167.032 315.476 167.685 319.975 167.407C322.446 167.303 324.872 166.721 327.121 165.694C329.093 164.626 330.925 163.317 332.574 161.798C334.064 160.58 335.484 159.279 336.828 157.902C337.181 157.527 337.545 157.14 337.862 156.729C338.179 156.318 338.379 156.095 338.626 155.779L338.932 155.38C339.199 154.973 339.552 154.629 339.966 154.37C340.558 154.099 341.206 153.97 341.858 153.995C344.408 153.889 347.182 153.408 349.697 153.467H349.967C350.211 153.476 350.455 153.504 350.695 153.549C351.566 153.686 352.38 154.064 353.046 154.64C353.864 155.426 354.611 156.282 355.279 157.198C356.843 158.91 358.071 160.9 358.898 163.065C360.121 166.656 358.969 170.587 358.405 174.412Z" fill="white"/>
<path d="M361.343 174.025C361.334 178.094 361.024 182.157 360.414 186.181C359.886 189.807 359.239 193.386 358.37 196.953C358.217 193.233 358.04 189.537 357.935 185.817C357.762 182.009 357.919 178.193 358.405 174.412C358.969 170.598 360.121 166.656 358.934 162.995C358.106 160.83 356.878 158.84 355.314 157.128C354.647 156.211 353.899 155.355 353.081 154.57C355.431 156.342 357.288 159.639 358.84 161.61C361.484 165.072 361.319 169.894 361.343 174.025Z" fill="white"/>
<path opacity="0.1" d="M361.343 174.025C361.334 178.094 361.024 182.157 360.414 186.181C359.886 189.807 359.239 193.386 358.37 196.953C358.217 193.233 358.04 189.537 357.935 185.817C357.762 182.009 357.919 178.193 358.405 174.412C358.969 170.598 360.121 166.656 358.934 162.995C358.106 160.83 356.878 158.84 355.314 157.128C354.647 156.211 353.899 155.355 353.081 154.57C355.431 156.342 357.288 159.639 358.84 161.61C361.484 165.072 361.319 169.894 361.343 174.025Z" fill="#020202"/>
<path opacity="0.1" d="M358.405 174.412C357.919 178.193 357.762 182.009 357.935 185.817C358.041 189.537 358.217 193.233 358.37 196.953C357.653 200.156 356.854 203.359 356.019 206.527C355.489 209.115 354.616 211.621 353.422 213.978C352.82 215.112 352.024 216.133 351.072 216.994C350.133 217.817 349.065 218.479 347.91 218.954C345.197 219.957 342.297 220.357 339.413 220.127C337.38 220.047 335.362 219.74 333.396 219.212C330.871 218.582 328.526 217.377 326.545 215.692C325.55 214.804 324.68 213.785 323.959 212.664C322.233 209.902 321.189 206.768 320.916 203.524C320.325 198.197 321.014 192.808 322.925 187.8C323.031 187.507 323.148 187.225 323.266 186.932C324.194 184.912 325.014 182.843 325.722 180.736C325.722 180.736 325.722 180.678 325.722 180.654C325.816 180.302 325.898 179.974 325.981 179.633C325.894 179.672 325.803 179.699 325.71 179.716L325.229 179.892C325.076 179.953 324.918 180.004 324.758 180.044C324.418 180.173 324.053 180.267 323.713 180.361L322.537 180.654C321.867 180.795 321.186 180.924 320.504 181.006L319.576 181.112C310.914 181.992 302.03 178.613 294.567 174.6C292.235 173.415 290.102 171.875 288.245 170.035C287.858 169.625 287.493 169.194 287.152 168.744C286.296 167.62 285.666 166.341 285.295 164.978C285.036 164.153 285.036 163.269 285.295 162.443C285.312 162.41 285.331 162.379 285.354 162.349C285.611 161.785 285.969 161.272 286.411 160.836C287.497 159.648 288.647 158.52 289.855 157.456L290.231 157.128C290.555 156.844 290.935 156.632 291.347 156.506C291.753 156.415 292.174 156.415 292.58 156.504C292.986 156.593 293.367 156.77 293.698 157.022C294.298 157.441 294.857 157.917 295.366 158.442C298.629 161.548 302.499 163.947 306.733 165.49C310.968 167.032 315.476 167.685 319.975 167.407C322.446 167.303 324.872 166.721 327.121 165.694C329.093 164.626 330.925 163.317 332.574 161.798C334.064 160.58 335.484 159.279 336.828 157.902C337.181 157.527 337.545 157.14 337.862 156.729C338.179 156.318 338.379 156.095 338.626 155.779L338.932 155.38C339.199 154.973 339.552 154.629 339.966 154.37C340.558 154.099 341.206 153.97 341.858 153.995C344.408 153.889 347.182 153.408 349.697 153.467H349.967C350.211 153.476 350.455 153.504 350.695 153.549C351.549 153.738 352.351 154.111 353.046 154.64C353.864 155.426 354.611 156.282 355.279 157.198C356.843 158.91 358.071 160.9 358.898 163.065C360.121 166.656 358.969 170.587 358.405 174.412Z" fill="#020202"/>
<path d="M318.26 313.458C317.14 313.965 316.216 314.822 315.627 315.899C315.504 316.137 315.467 316.411 315.521 316.673C315.606 316.867 315.734 317.04 315.894 317.178C316.055 317.316 316.245 317.416 316.45 317.471C319.411 318.644 322.761 318.433 325.91 317.87C329.016 317.11 332.188 316.651 335.383 316.497C335.651 316.539 335.925 316.524 336.187 316.451C336.448 316.378 336.691 316.25 336.899 316.075C337.095 315.781 337.19 315.43 337.169 315.077C337.297 312.308 336.816 309.544 335.759 306.981C335.829 307.145 327.379 307.474 326.662 307.978C325.311 308.905 324.195 310.09 322.761 310.947C321.327 311.804 319.752 312.566 318.26 313.458Z" fill="#282328"/>
<path d="M304.11 170.997C298.481 168.991 292.746 167.008 288.256 162.971C287.738 162.601 287.381 162.047 287.257 161.423C287.297 161.036 287.424 160.664 287.627 160.333C287.83 160.002 288.106 159.72 288.433 159.51C289.236 158.701 290.15 158.009 291.147 157.456C291.646 157.179 292.198 157.01 292.767 156.96C293.336 156.909 293.909 156.978 294.45 157.163C295.202 157.542 295.879 158.055 296.448 158.677C300.581 162.391 305.667 164.885 311.138 165.881C316.461 167.055 322.326 167.125 327.438 165.06C330.399 163.887 336.84 156.107 339.719 157.245C342.598 158.383 341.329 164.121 339.93 165.905C336.91 169.742 329.259 171.561 324.653 172.429C317.799 173.784 310.708 173.29 304.11 170.997Z" fill="white"/>
<path d="M348.933 158.313C349.581 158.008 350.156 157.568 350.619 157.021C351.081 156.474 351.42 155.834 351.612 155.145C350.067 154.827 348.481 154.748 346.911 154.91L342.41 155.133L339.449 155.286C337.604 155.391 337.569 156.201 338.274 157.468C338.603 158.067 339.449 158.548 339.801 159.193C340.154 159.838 340.213 160.531 340.636 161.024C341.811 162.432 342.14 161.634 343.656 160.719C345.172 159.803 347.205 159.252 348.933 158.313Z" fill="white"/>
<path d="M275.952 50.303L328.778 44.7646L291.007 59.5376L275.952 50.303Z" fill="#036672"/>
<path d="M328.778 44.7646L297.294 75.1788L291.006 59.5376L328.778 44.7646Z" fill="#036672"/>
<path d="M328.778 44.7646L297.294 75.1788L291.006 59.5376L328.778 44.7646Z" fill="url(#paint10_linear_134_4827)"/>
<path d="M284.778 76.2231L291.006 59.5376L328.778 44.7646L284.778 76.2231Z" fill="#036672"/>
<path d="M328.778 44.7646L291.007 56.3108L275.952 50.303L291.007 59.5376L328.778 44.7646Z" fill="url(#paint11_linear_134_4827)"/>
</g>
<defs>
<linearGradient id="paint0_linear_134_4827" x1="268.454" y1="146.18" x2="175.072" y2="490.466" gradientUnits="userSpaceOnUse">
<stop offset="0.01"/>
<stop offset="0.13" stop-opacity="0.69"/>
<stop offset="0.25" stop-opacity="0.32"/>
<stop offset="1" stop-opacity="0"/>
</linearGradient>
<linearGradient id="paint1_linear_134_4827" x1="108.014" y1="220.42" x2="-49.3053" y2="354.651" gradientUnits="userSpaceOnUse">
<stop offset="0.01"/>
<stop offset="0.13" stop-opacity="0.69"/>
<stop offset="0.25" stop-opacity="0.32"/>
<stop offset="1" stop-opacity="0"/>
</linearGradient>
<linearGradient id="paint2_linear_134_4827" x1="241.33" y1="210.447" x2="398.649" y2="344.666" gradientUnits="userSpaceOnUse">
<stop offset="0.01"/>
<stop offset="0.13" stop-opacity="0.69"/>
<stop offset="0.25" stop-opacity="0.32"/>
<stop offset="1" stop-opacity="0"/>
</linearGradient>
<linearGradient id="paint3_linear_134_4827" x1="73.0998" y1="102.304" x2="270.559" y2="258.799" gradientUnits="userSpaceOnUse">
<stop stop-color="white"/>
<stop offset="1" stop-color="#CBCBCB"/>
</linearGradient>
<linearGradient id="paint4_linear_134_4827" x1="189.139" y1="237.317" x2="160.089" y2="334.651" gradientUnits="userSpaceOnUse">
<stop offset="0.01"/>
<stop offset="0.13" stop-opacity="0.69"/>
<stop offset="0.25" stop-opacity="0.32"/>
<stop offset="1" stop-opacity="0"/>
</linearGradient>
<linearGradient id="paint5_linear_134_4827" x1="177.333" y1="29.6596" x2="178.46" y2="42.7877" gradientUnits="userSpaceOnUse">
<stop stop-color="white"/>
<stop offset="1" stop-color="#CBCBCB"/>
</linearGradient>
<linearGradient id="paint6_linear_134_4827" x1="192.104" y1="28.3149" x2="193.66" y2="37.7465" gradientUnits="userSpaceOnUse">
<stop stop-color="white"/>
<stop offset="1" stop-color="#CBCBCB"/>
</linearGradient>
<linearGradient id="paint7_linear_134_4827" x1="184.72" y1="172.369" x2="289.638" y2="209.099" gradientUnits="userSpaceOnUse">
<stop stop-color="white"/>
<stop offset="1" stop-color="#CBCBCB"/>
</linearGradient>
<linearGradient id="paint8_linear_134_4827" x1="307.788" y1="146.086" x2="178.318" y2="171.555" gradientUnits="userSpaceOnUse">
<stop offset="0.01" stop-color="white"/>
<stop offset="1" stop-color="white" stop-opacity="0"/>
</linearGradient>
<linearGradient id="paint9_linear_134_4827" x1="275.541" y1="132.827" x2="283.155" y2="140.888" gradientUnits="userSpaceOnUse">
<stop stop-color="white"/>
<stop offset="1" stop-color="#CBCBCB"/>
</linearGradient>
<linearGradient id="paint10_linear_134_4827" x1="296.53" y1="42.1011" x2="340.162" y2="89.4914" gradientUnits="userSpaceOnUse">
<stop offset="0.01"/>
<stop offset="0.13" stop-opacity="0.69"/>
<stop offset="0.25" stop-opacity="0.32"/>
<stop offset="1" stop-opacity="0"/>
</linearGradient>
<linearGradient id="paint11_linear_134_4827" x1="302.359" y1="30.4494" x2="302.359" y2="81.2335" gradientUnits="userSpaceOnUse">
<stop offset="0.01"/>
<stop offset="0.13" stop-opacity="0.69"/>
<stop offset="0.25" stop-opacity="0.32"/>
<stop offset="1" stop-opacity="0"/>
</linearGradient>
<clipPath id="clip0_134_4827">
<rect width="418" height="340" fill="white"/>
</clipPath>
</defs>
</svg>
