<svg  viewBox="0 0 451 340" fill="none" xmlns="http://www.w3.org/2000/svg">
<path opacity="0.19" d="M109.452 314.351C110.17 316.241 108.689 318.337 106.879 319.237C105.068 320.137 102.973 320.216 101.015 320.723C97.9687 321.509 95.2871 323.297 92.338 324.396C88.29 325.905 83.8833 326.071 79.5621 326.219C66.5243 326.669 52.6097 326.891 41.5304 320C41.1135 319.795 40.7754 319.459 40.5683 319.043C40.4518 318.631 40.4945 318.19 40.6878 317.807C41.6045 315.695 44.2348 315.051 46.5121 314.692C57.2384 313.018 68.2209 311.503 79.0838 311.122C84.7317 310.934 107.312 308.656 109.452 314.351Z" fill="url(#paint0_linear_134_5154)"/>
<path opacity="0.18" d="M333.292 315.194C328.356 316.196 323.705 318.252 319.099 320.319L300.624 328.502C310.929 334.049 323.437 331.76 335.143 331.6C336.168 331.6 337.272 331.6 338.086 332.238C339.225 333.132 339.327 334.823 340.039 336.099C341.377 338.514 344.594 338.998 347.344 339.18C372.246 340.803 397.247 340.006 421.995 336.8C423.179 336.646 424.42 336.464 425.377 335.752C428.224 333.628 426.219 328.724 422.997 327.21C419.775 325.695 415.989 326.071 412.567 325.091C409.145 324.112 405.843 320.49 407.443 317.295C393.335 317.576 379.227 317.424 365.118 316.839C354.472 316.384 343.922 313.03 333.292 315.194Z" fill="#03525B"/>
<path opacity="0.18" d="M401.317 192.101C403.628 167.984 415.362 142.472 403.366 120.666C400.218 114.972 395.703 110.091 390.653 105.552C383.98 99.5672 376.38 94.1629 369.736 88.1321C357.979 77.4487 351.255 64.6754 342.197 52.9613C338.444 48.0163 334.175 43.4861 329.461 39.4476C327.586 37.8645 325.688 36.306 323.768 34.7722C308.02 22.295 290.296 11.5831 270.142 5.36446C241.561 -3.41687 207.583 -2.01026 183.449 14.049C174.761 19.8291 167.724 27.1469 160.937 34.7779C155.46 40.9112 150.171 47.2096 144.319 52.9613C139.086 58.1321 133.416 62.8701 126.794 66.6686C117.366 72.0843 106.515 75.2676 96.5114 79.8178C90.0942 82.7355 83.99 86.2978 78.2927 90.4499C70.6457 96.0033 63.8071 102.592 57.9731 110.028C45.3224 126.156 38.1659 145.604 38.6498 165.182C38.7238 168.246 38.9743 171.327 39.0711 174.402C39.2605 177.783 39.0657 181.174 38.4904 184.51C37.4314 189.977 34.8296 195.114 32.1423 200.205C28.4815 207.136 24.6499 213.992 24.2855 221.526C23.6478 234.476 33.2354 245.569 43.8706 255.051C45.647 256.634 47.4574 258.178 49.2452 259.675C52.0918 262.067 55.0239 264.459 57.9788 266.822L58.5481 267.278C60.1309 268.536 61.7193 269.789 63.3305 271.031C67.3728 274.146 71.5119 277.181 75.7534 280.074C77.6512 281.361 79.549 282.612 81.4468 283.827C85.8665 286.664 90.427 289.276 95.1109 291.651C106.674 297.528 119.023 301.822 132.311 303.531C168.709 308.087 204.913 291.896 241.624 294.038C265.712 295.438 288.178 304.63 311.521 309.983C334.864 315.336 361.97 316.19 380.792 302.961C398.14 290.792 403.828 269.767 403.873 250.325C403.919 230.883 399.449 211.481 401.317 192.101Z" fill="#036672"/>
<path d="M374.899 34.7779H73.7206C71.6564 34.7749 69.6117 35.1786 67.7034 35.966C65.7951 36.7535 64.0605 37.9091 62.5987 39.367C61.1369 40.8249 59.9765 42.5566 59.1838 44.4631C58.3911 46.3696 57.9815 48.4136 57.9785 50.4784V267.272H390.624V50.5011C390.624 46.3311 388.968 42.3318 386.02 39.3831C383.072 36.4345 379.074 34.7779 374.905 34.7779H374.899Z" fill="#036672"/>
<path opacity="0.47" d="M118.254 232.249C117.685 238.189 112.356 242.551 106.867 244.419C104.021 245.387 100.998 245.928 98.5552 247.694C96.1127 249.459 94.5129 253.03 96.0501 255.666C97.919 255.658 99.7472 256.212 101.297 257.257C102.846 258.302 104.045 259.79 104.738 261.526C101.225 266.874 95.0025 269.795 88.7968 270.638C82.591 271.481 76.2714 270.49 70.1225 269.465C67.9648 269.112 65.6646 268.679 64.1104 267.096C62.5561 265.513 62.1291 263.212 61.7419 261.031C61.6907 260.723 61.6337 260.416 61.5768 260.103H57.8477V52.9613H78.2299V151.481C78.2299 159.516 77.8655 167.62 77.9908 175.626C78.116 183.246 83.1831 187.107 88.0111 192.648C89.497 194.357 91.0399 196.167 91.4783 198.417C91.9509 200.803 91.0969 203.331 91.7288 205.672C92.822 209.738 97.9403 211.276 101.869 210.125C105.797 208.975 108.946 206.014 112.333 203.656C118.187 199.595 125.059 197.25 132.174 196.885C129.789 207.005 118.055 213.4 117.782 223.827C117.696 226.652 118.527 229.431 118.254 232.249Z" fill="url(#paint1_linear_134_5154)"/>
<path d="M43.4892 241.179C38.3652 232.893 34.7783 223.582 33.7592 213.895C33.133 207.99 33.4006 201.76 30.7361 196.452C29.1533 193.297 26.5742 190.587 25.7771 187.141C24.2969 180.706 29.4607 174.823 34.2033 170.228C34.4878 169.887 34.869 169.641 35.2964 169.522C36.0366 169.385 36.7027 170 37.1525 170.609C39.8682 174.271 40.0846 179.151 40.7791 183.633C41.525 188.502 43.1191 193.536 46.8255 196.788C50.5319 200.04 56.2423 201.469 58.0699 206.059C59.6925 210.148 57.3639 214.972 58.8271 219.123C60.2903 223.274 65.2947 225.763 66.0463 230.137C66.5473 233.041 64.9873 235.923 65.0328 238.867C65.067 241.11 66.0292 243.223 66.5757 245.404C67.7486 250.085 66.5757 263.793 59.4647 259.784C53.0256 256.167 47.2696 247.289 43.4892 241.179Z" fill="#036672"/>
<path d="M43.4892 241.179C38.3652 232.893 34.7783 223.582 33.7592 213.895C33.133 207.99 33.4006 201.76 30.7361 196.452C29.1533 193.297 26.5742 190.587 25.7771 187.141C24.2969 180.706 29.4607 174.823 34.2033 170.228C34.4878 169.887 34.869 169.641 35.2964 169.522C36.0366 169.385 36.7027 170 37.1525 170.609C39.8682 174.271 40.0846 179.151 40.7791 183.633C41.525 188.502 43.1191 193.536 46.8255 196.788C50.5319 200.04 56.2423 201.469 58.0699 206.059C59.6925 210.148 57.3639 214.972 58.8271 219.123C60.2903 223.274 65.2947 225.763 66.0463 230.137C66.5473 233.041 64.9873 235.923 65.0328 238.867C65.067 241.11 66.0292 243.223 66.5757 245.404C67.7486 250.085 66.5757 263.793 59.4647 259.784C53.0256 256.167 47.2696 247.289 43.4892 241.179Z" fill="url(#paint2_linear_134_5154)"/>
<path d="M56.4128 231.777C54.551 222.221 54.4884 212.232 56.9821 202.813C58.4908 197.067 60.9674 191.338 60.3241 185.433C59.9597 181.919 58.5022 178.468 58.9805 174.972C59.8743 168.428 66.7804 164.721 72.8381 162.124C73.2275 161.911 73.6707 161.816 74.1134 161.851C74.8592 161.987 75.2521 162.796 75.4627 163.525C76.7096 167.91 75.1951 172.534 74.25 176.993C73.2309 181.811 72.9406 187.084 75.2521 191.435C77.5636 195.786 82.4086 199.146 82.494 204.083C82.568 208.485 78.6852 212.175 78.5884 216.572C78.4916 220.968 82.2891 225.068 81.4351 229.431C80.8657 232.323 78.3948 234.465 77.3985 237.232C76.6356 239.345 76.7893 241.663 76.5331 243.895C75.9637 248.69 70.054 261.11 64.7934 254.829C60.0565 249.146 57.7792 238.81 56.4128 231.777Z" fill="#036672"/>
<path d="M56.4128 231.777C54.551 222.221 54.4884 212.232 56.9821 202.813C58.4908 197.067 60.9674 191.338 60.3241 185.433C59.9597 181.919 58.5022 178.468 58.9805 174.972C59.8743 168.428 66.7804 164.721 72.8381 162.124C73.2275 161.911 73.6707 161.816 74.1134 161.851C74.8592 161.987 75.2521 162.796 75.4627 163.525C76.7096 167.91 75.1951 172.534 74.25 176.993C73.2309 181.811 72.9406 187.084 75.2521 191.435C77.5636 195.786 82.4086 199.146 82.494 204.083C82.568 208.485 78.6852 212.175 78.5884 216.572C78.4916 220.968 82.2891 225.068 81.4351 229.431C80.8657 232.323 78.3948 234.465 77.3985 237.232C76.6356 239.345 76.7893 241.663 76.5331 243.895C75.9637 248.69 70.054 261.11 64.7934 254.829C60.0565 249.146 57.7792 238.81 56.4128 231.777Z" fill="url(#paint3_linear_134_5154)"/>
<path d="M69.5416 233.354C74.4379 224.937 80.9682 217.409 89.03 211.93C93.9491 208.599 99.5684 205.905 102.996 201.053C105.034 198.172 106.218 194.618 108.877 192.301C113.859 187.967 121.482 189.749 127.768 191.777C128.202 191.869 128.598 192.089 128.906 192.409C129.379 192.978 129.145 193.872 128.821 194.561C126.874 198.679 122.683 201.156 119.04 203.889C115.094 206.839 111.405 210.615 110.278 215.41C109.15 220.205 110.579 225.928 107.385 229.698C104.539 233.058 99.1926 233.269 96.2207 236.532C93.2488 239.795 93.4082 245.364 89.9011 248.087C87.5725 249.892 84.2988 249.875 81.7254 251.298C79.7612 252.386 78.3493 254.225 76.6811 255.735C73.1057 258.975 60.4721 264.413 60.6543 256.224C60.808 248.861 65.9263 239.561 69.5416 233.354Z" fill="#036672"/>
<path d="M69.5416 233.354C74.4379 224.937 80.9682 217.409 89.03 211.93C93.9491 208.599 99.5684 205.905 102.996 201.053C105.034 198.172 106.218 194.618 108.877 192.301C113.859 187.967 121.482 189.749 127.768 191.777C128.202 191.869 128.598 192.089 128.906 192.409C129.379 192.978 129.145 193.872 128.821 194.561C126.874 198.679 122.683 201.156 119.04 203.889C115.094 206.839 111.405 210.615 110.278 215.41C109.15 220.205 110.579 225.928 107.385 229.698C104.539 233.058 99.1926 233.269 96.2207 236.532C93.2488 239.795 93.4082 245.364 89.9011 248.087C87.5725 249.892 84.2988 249.875 81.7254 251.298C79.7612 252.386 78.3493 254.225 76.6811 255.735C73.1057 258.975 60.4721 264.413 60.6543 256.224C60.808 248.861 65.9263 239.561 69.5416 233.354Z" fill="url(#paint4_linear_134_5154)"/>
<path d="M100.104 262.961L99.3411 267.272L98.6864 271.025L97.1321 280.068L96.5115 283.821L94.9401 292.87L94.2854 296.617L90.3798 319.1H49.7633L45.8235 296.617L45.1688 292.87L43.6145 283.821L42.9541 280.068L41.3372 271.025L40.6938 267.272L39.9423 262.967C39.5998 261.019 40.045 259.014 41.1799 257.394C42.3149 255.774 44.0466 254.671 45.9943 254.328C46.4211 254.253 46.8535 254.215 47.2867 254.214H92.7482C93.7261 254.213 94.6948 254.404 95.5989 254.777C96.5029 255.15 97.3247 255.697 98.0173 256.388C98.7099 257.078 99.2597 257.899 99.6353 258.802C100.011 259.705 100.205 260.673 100.206 261.651C100.206 262.091 100.167 262.529 100.093 262.961H100.104Z" fill="#036672"/>
<path d="M100.104 262.961L99.3411 267.272L98.6864 271.025L97.1321 280.068L96.5115 283.821L94.9401 292.87L94.2854 296.617L90.3798 319.1H49.7633L45.8235 296.617L45.1688 292.87L43.6145 283.821L42.9541 280.068L41.3372 271.025L40.6938 267.272L39.9423 262.967C39.5998 261.019 40.045 259.014 41.1799 257.394C42.3149 255.774 44.0466 254.671 45.9943 254.328C46.4211 254.253 46.8535 254.215 47.2867 254.214H92.7482C93.7261 254.213 94.6948 254.404 95.5989 254.777C96.5029 255.15 97.3247 255.697 98.0173 256.388C98.7099 257.078 99.2597 257.899 99.6353 258.802C100.011 259.705 100.205 260.673 100.206 261.651C100.206 262.091 100.167 262.529 100.093 262.961H100.104Z" fill="url(#paint5_linear_134_5154)"/>
<path d="M390.624 50.5011V52.9613H57.9785V50.5125C57.977 48.4468 58.3825 46.4009 59.1718 44.492C59.9611 42.5831 61.1188 40.8484 62.5786 39.3871C64.0384 37.9259 65.7718 36.7667 67.6797 35.9758C69.5876 35.185 71.6326 34.7779 73.6979 34.7779H374.877C376.941 34.7771 378.985 35.1831 380.893 35.9726C382.8 36.762 384.533 37.9196 385.993 39.3791C387.454 40.8386 388.612 42.5715 389.403 44.4788C390.194 46.3862 390.601 48.4306 390.602 50.4954L390.624 50.5011Z" fill="url(#paint6_linear_134_5154)"/>
<path d="M74.7911 46.7027C76.7312 46.7027 78.3039 45.1296 78.3039 43.1891C78.3039 41.2485 76.7312 39.6754 74.7911 39.6754C72.8511 39.6754 71.2783 41.2485 71.2783 43.1891C71.2783 45.1296 72.8511 46.7027 74.7911 46.7027Z" fill="url(#paint7_linear_134_5154)"/>
<path d="M86.5821 46.7027C88.5222 46.7027 90.0949 45.1296 90.0949 43.1891C90.0949 41.2485 88.5222 39.6754 86.5821 39.6754C84.6421 39.6754 83.0693 41.2485 83.0693 43.1891C83.0693 45.1296 84.6421 46.7027 86.5821 46.7027Z" fill="url(#paint8_linear_134_5154)"/>
<path d="M98.3673 46.7027C100.307 46.7027 101.88 45.1296 101.88 43.1891C101.88 41.2485 100.307 39.6754 98.3673 39.6754C96.4272 39.6754 94.8545 41.2485 94.8545 43.1891C94.8545 45.1296 96.4272 46.7027 98.3673 46.7027Z" fill="url(#paint9_linear_134_5154)"/>
<path d="M261.778 129.271V194.334C261.773 196.538 260.895 198.651 259.336 200.21C257.777 201.768 255.664 202.645 253.46 202.648H188.436C186.232 202.645 184.119 201.768 182.56 200.21C181.001 198.651 180.123 196.538 180.118 194.334V129.271C180.118 128.179 180.333 127.098 180.751 126.089C181.169 125.081 181.781 124.164 182.553 123.392C183.325 122.62 184.241 122.007 185.249 121.59C186.258 121.172 187.339 120.957 188.43 120.957H253.46C254.552 120.956 255.634 121.17 256.643 121.588C257.652 122.005 258.569 122.618 259.341 123.39C260.114 124.162 260.727 125.079 261.145 126.088C261.563 127.097 261.778 128.179 261.778 129.271Z" fill="url(#paint10_linear_134_5154)"/>
<path d="M227.595 154.055C227.631 155.258 227.34 156.448 226.753 157.498C226.167 158.549 225.307 159.422 224.265 160.023C224.001 160.175 223.782 160.396 223.632 160.661C223.482 160.926 223.405 161.227 223.411 161.532V175.769C223.411 176.029 223.359 176.287 223.26 176.527C223.16 176.768 223.014 176.986 222.83 177.17C222.646 177.354 222.428 177.5 222.188 177.6C221.947 177.699 221.69 177.751 221.429 177.751H220.462C220.201 177.751 219.944 177.699 219.703 177.6C219.463 177.5 219.245 177.354 219.061 177.17C218.877 176.986 218.731 176.768 218.631 176.527C218.532 176.287 218.48 176.029 218.48 175.769V161.532C218.483 161.227 218.406 160.926 218.256 160.66C218.106 160.394 217.889 160.173 217.626 160.017C216.622 159.438 215.786 158.606 215.203 157.604C214.619 156.602 214.307 155.465 214.299 154.305C214.29 153.145 214.584 152.003 215.153 150.993C215.722 149.982 216.545 149.138 217.54 148.543C218.536 147.949 219.67 147.625 220.829 147.605C221.988 147.584 223.133 147.866 224.149 148.425C225.165 148.983 226.018 149.797 226.622 150.787C227.227 151.776 227.562 152.907 227.595 154.066V154.055Z" fill="#036672"/>
<path d="M99.3577 267.272L98.703 271.025H41.3481L40.6934 267.272H99.3577Z" fill="#036672"/>
<path d="M97.1262 280.068L96.4772 283.821H43.5916L42.9312 280.068H97.1262Z" fill="#036672"/>
<path d="M94.9056 292.87L94.2509 296.617H45.8232L45.1685 292.87H94.9056Z" fill="#036672"/>
<path opacity="0.18" d="M305.628 174.197C302.958 170.456 298.921 167.853 294.623 166.224C293.644 165.854 292.539 165.535 291.583 165.951C290.911 166.322 290.348 166.862 289.949 167.517C287.876 170.364 285.719 173.44 285.519 176.959C285.223 182.312 289.465 188.013 286.743 192.631C285.986 193.918 284.779 194.875 283.897 196.082C282.234 198.36 281.853 201.344 282.075 204.157C282.342 207.534 282.775 212.05 279.587 213.2C278.629 213.481 277.614 213.495 276.649 213.24C273.854 212.671 271.269 211.333 268.53 210.535C265.792 209.738 262.632 209.55 260.252 211.105C260.042 214.146 262.655 216.68 265.405 217.995C268.155 219.311 271.252 219.909 273.774 221.623C277.588 224.208 279.467 229.026 279.348 233.656C279.228 238.286 277.418 242.671 275.106 246.663C274.03 248.519 272.829 250.37 272.385 252.472C271.514 256.663 273.859 260.78 276.108 264.431C276.769 265.495 277.492 266.623 278.642 267.124C279.616 267.455 280.656 267.539 281.671 267.369L321.604 263.952C322.742 263.855 324.069 263.628 324.559 262.597C324.775 261.964 324.775 261.277 324.559 260.644C323.255 255.051 319.15 250.45 317.692 244.892C317.021 242.301 316.947 239.596 316.873 236.919C316.577 225.883 316.206 214.738 313.855 203.89C312.677 198.485 309.773 193.434 308.623 188.166C307.553 183.252 309.021 178.946 305.628 174.197Z" fill="#1D2741"/>
<path d="M242.961 120.974H235.896V111.481C235.891 109.518 235.5 107.575 234.744 105.763C233.989 103.951 232.884 102.306 231.492 100.921C230.101 99.5364 228.451 98.4394 226.636 97.6926C224.821 96.9459 222.876 96.564 220.914 96.5689C216.95 96.5787 213.153 98.1631 210.357 100.973C208.973 102.365 207.876 104.016 207.129 105.831C206.383 107.647 206.001 109.592 206.006 111.555V120.974H198.935V111.293C199.081 105.54 201.474 100.073 205.599 96.0627C209.725 92.0521 215.256 89.816 221.009 89.8331C226.762 89.8503 232.28 92.1192 236.382 96.1543C240.483 100.189 242.843 105.67 242.956 111.424L242.961 120.974Z" fill="url(#paint11_linear_134_5154)"/>
<path d="M390.573 310.934L396.534 316.629L387.954 325.171L377.177 326.099C376.859 325.187 376.884 324.19 377.247 323.294C377.609 322.399 378.284 321.665 379.147 321.23C381.128 320.159 383.286 319.453 385.518 319.146L385.284 314.738L390.573 310.934Z" fill="#3F3D56"/>
<path d="M324.297 310.484L325.174 317.671L304.985 326.714C304.985 326.714 302.463 322.813 305.048 319.425C307.632 316.036 314.76 313.656 314.76 313.656L316.019 310.53L324.297 310.484Z" fill="#3F3D56"/>
<path d="M329.461 199.635C329.461 199.635 322.15 205.04 321.382 213.428C320.613 221.817 320.243 224.761 320.243 224.761L307.433 223.724L307.262 230.809C307.262 230.809 324.257 237.022 326.864 235.962C329.472 234.903 332.734 230.228 332.734 230.228L329.461 199.635Z" fill="#036672"/>
<path d="M329.461 199.635C329.461 199.635 322.15 205.04 321.382 213.428C320.613 221.817 320.243 224.761 320.243 224.761L307.433 223.724L307.262 230.809C307.262 230.809 324.257 237.022 326.864 235.962C329.472 234.903 332.734 230.228 332.734 230.228L329.461 199.635Z" fill="url(#paint12_linear_134_5154)"/>
<path d="M334.38 244.345C334.38 244.345 307.621 266.429 307.404 273.958C307.188 281.486 313.98 310.934 313.98 310.934L324.354 310.877L324.655 279.932C324.655 279.932 346.541 272.289 348.92 267.671C351.3 263.052 356.345 240.513 334.38 244.345Z" fill="#036672"/>
<path d="M334.38 244.345C334.38 244.345 307.621 266.429 307.404 273.958C307.188 281.486 313.98 310.934 313.98 310.934L324.354 310.877L324.655 279.932C324.655 279.932 346.541 272.289 348.92 267.671C351.3 263.052 356.345 240.513 334.38 244.345Z" fill="url(#paint13_linear_134_5154)"/>
<path d="M334.38 244.345C334.38 244.345 336.014 278.024 346.541 288.912C357.068 299.801 384.009 316.139 384.009 316.139L391.655 311.395L365.79 284.391C365.79 284.391 369.531 254.077 365.107 248.764C360.683 243.451 334.38 244.345 334.38 244.345Z" fill="#036672"/>
<path d="M334.38 244.345C334.38 244.345 336.014 278.024 346.541 288.912C357.068 299.801 384.009 316.139 384.009 316.139L391.655 311.395L365.79 284.391C365.79 284.391 369.531 254.077 365.107 248.764C360.683 243.451 334.38 244.345 334.38 244.345Z" fill="url(#paint14_linear_134_5154)"/>
<path d="M334.38 244.345L325.236 205.649C325.236 205.649 330.36 190.894 350.669 195.644C370.977 200.393 365.09 248.764 365.09 248.764C365.09 248.764 342.294 256.327 334.38 244.345Z" fill="#036672"/>
<path d="M334.38 244.345L325.236 205.649C325.236 205.649 330.36 190.894 350.669 195.644C370.977 200.393 365.09 248.764 365.09 248.764C365.09 248.764 342.294 256.327 334.38 244.345Z" fill="url(#paint15_linear_134_5154)"/>
<path d="M349.98 201.595C349.98 201.595 348.761 195.154 355.297 196.874C361.833 198.593 372.007 220.792 371.632 223.878C371.256 226.965 339.458 228.235 339.458 228.235L338.701 220.831L355.417 218.035C355.417 218.035 349.279 207.511 349.98 201.595Z" fill="#036672"/>
<path d="M349.98 201.595C349.98 201.595 348.761 195.154 355.297 196.874C361.833 198.593 372.007 220.792 371.632 223.878C371.256 226.965 339.458 228.235 339.458 228.235L338.701 220.831L355.417 218.035C355.417 218.035 349.279 207.511 349.98 201.595Z" fill="url(#paint16_linear_134_5154)"/>
<path d="M346.859 187.847C346.076 189.468 344.742 190.758 343.096 191.486C342.82 191.581 342.551 191.697 342.293 191.834C342.178 191.907 342.072 191.995 341.98 192.096C341.411 192.733 341.809 193.679 341.98 194.499C342.299 196.367 341.217 198.28 339.657 199.351C338.781 199.913 337.82 200.33 336.811 200.587C335.393 200.957 333.867 201.042 332.791 200.535C331.083 199.732 331.254 197.118 330.878 195.518C329.637 190.325 328.55 185 329.113 179.63C329.415 176.782 330.212 173.878 331.926 171.566C333.639 169.254 336.367 167.58 339.247 167.631C342.128 167.682 344.861 169.499 346.916 171.617C347.635 172.324 348.241 173.137 348.715 174.026C350.048 176.697 349.342 179.892 348.602 182.785C348.225 184.536 347.64 186.235 346.859 187.847Z" fill="url(#paint17_linear_134_5154)"/>
<path d="M349.148 175.251C349.148 175.251 340.608 175.251 335.444 178.257C330.838 180.928 329.569 186.634 329.182 186.538C328.311 186.338 325.47 180.843 326.665 179.63C327.861 178.417 326.916 178.411 326.916 178.411C326.916 178.411 325.544 176.133 326.233 172.044C326.798 169.058 327.57 166.114 328.544 163.235C328.544 163.235 328.903 161.879 334.072 163.235C339.242 164.59 347.958 168.73 348.442 170.41C348.926 172.09 348.528 172.859 348.528 172.859C348.528 172.859 349.945 173.901 349.148 175.251Z" fill="#036672"/>
<path d="M349.148 175.251C349.148 175.251 340.608 175.251 335.444 178.257C330.838 180.928 329.569 186.634 329.182 186.538C328.311 186.338 325.47 180.843 326.665 179.63C327.861 178.417 326.916 178.411 326.916 178.411C326.916 178.411 325.544 176.133 326.233 172.044C326.798 169.058 327.57 166.114 328.544 163.235C328.544 163.235 328.903 161.879 334.072 163.235C339.242 164.59 347.958 168.73 348.442 170.41C348.926 172.09 348.528 172.859 348.528 172.859C348.528 172.859 349.945 173.901 349.148 175.251Z" fill="url(#paint18_linear_134_5154)"/>
<path d="M335.445 178.246C338.441 178.971 341.485 179.481 344.554 179.772C347.31 179.949 349.297 179.203 349.314 179.072C349.348 178.781 348.42 183.696 348.42 183.696L346.33 184.431C345.524 184.716 344.664 184.817 343.814 184.727L330.782 183.371C330.782 183.371 333.002 179.385 335.445 178.246Z" fill="#036672"/>
<path d="M335.445 178.246C338.441 178.971 341.485 179.481 344.554 179.772C347.31 179.949 349.297 179.203 349.314 179.072C349.348 178.781 348.42 183.696 348.42 183.696L346.33 184.431C345.524 184.716 344.664 184.817 343.814 184.727L330.782 183.371C330.782 183.371 333.002 179.385 335.445 178.246Z" fill="url(#paint19_linear_134_5154)"/>
<path d="M340.808 180.763C341.182 180.66 341.579 180.672 341.946 180.797C342.197 180.843 342.424 180.974 342.59 181.167C342.684 181.315 342.75 181.479 342.783 181.651C342.817 181.749 342.817 181.856 342.783 181.953C342.735 182.01 342.673 182.051 342.602 182.075C342.532 182.098 342.457 182.101 342.385 182.084C341.705 182.09 341.032 181.96 340.403 181.703C339.885 181.435 340.369 180.917 340.808 180.763Z" fill="white"/>
<path d="M346.814 181.042C346.921 180.946 347.046 180.873 347.182 180.827C347.318 180.781 347.462 180.763 347.606 180.774C347.698 180.769 347.791 180.783 347.879 180.815C347.966 180.848 348.045 180.898 348.112 180.962C348.208 181.088 348.283 181.228 348.334 181.378C348.38 181.47 348.399 181.572 348.391 181.674C348.378 181.732 348.348 181.785 348.304 181.826C348.26 181.867 348.205 181.893 348.146 181.902C347.693 182.082 347.198 182.131 346.717 182.044C346.308 181.925 346.541 181.298 346.814 181.042Z" fill="white"/>
<path d="M339.629 199.351C338.753 199.913 337.791 200.33 336.782 200.587C335.934 199.628 335.391 198.438 335.222 197.17C335.056 196.29 334.955 195.399 334.921 194.505C334.816 193.727 335.007 192.938 335.456 192.295C335.753 192.02 336.109 191.817 336.497 191.702C336.885 191.588 337.295 191.565 337.693 191.634C338.496 191.726 339.27 192.005 340.073 192.09C340.756 192.164 341.576 191.851 342.293 191.811C342.178 191.884 342.073 191.972 341.98 192.073C341.411 192.711 341.81 193.656 341.98 194.476C342.271 196.367 341.189 198.28 339.629 199.351Z" fill="url(#paint20_linear_134_5154)"/>
<path d="M303.009 220.159C302.68 219.898 302.287 219.727 301.871 219.664C301.663 219.638 301.454 219.69 301.282 219.808C301.11 219.927 300.987 220.105 300.937 220.308C300.936 220.597 301.035 220.879 301.216 221.105L301.985 222.306C302.081 222.431 302.139 222.582 302.15 222.739C302.15 223.138 301.58 223.218 301.176 223.166C298.671 222.847 296.172 222.073 293.672 222.403C293.48 222.409 293.296 222.483 293.154 222.614C293.082 222.722 293.049 222.851 293.06 222.981C293.071 223.11 293.127 223.232 293.217 223.326C293.405 223.507 293.636 223.639 293.889 223.707C295.288 224.22 296.725 224.624 298.187 224.915C298.022 225.325 297.481 225.399 297.049 225.416C295.839 225.461 294.634 225.598 293.445 225.826C292.767 225.951 291.936 226.293 291.93 226.965C291.949 227.189 292.038 227.402 292.184 227.573C292.33 227.745 292.526 227.867 292.744 227.921C293.185 228.025 293.641 228.04 294.088 227.967C295.655 227.836 297.232 227.876 298.791 228.087C297.106 228.28 295.505 228.93 294.162 229.966C294.039 230.052 293.938 230.165 293.866 230.296C293.712 230.626 294.003 231.025 294.35 231.139C294.71 231.213 295.083 231.191 295.432 231.076C296.988 230.715 298.577 230.509 300.174 230.461C299.211 230.905 298.315 231.48 297.51 232.17C297.266 232.358 297.07 232.602 296.94 232.882C296.874 233.023 296.853 233.181 296.879 233.335C296.906 233.489 296.979 233.63 297.088 233.741C297.234 233.831 297.398 233.885 297.568 233.899C297.739 233.913 297.91 233.886 298.068 233.821C299.964 233.309 301.637 232.079 303.579 231.794C304.592 231.64 305.765 231.703 306.471 230.957C306.773 230.588 306.984 230.153 307.086 229.687C307.507 228.223 308.378 225.131 307.496 223.707C307.149 223.138 306.306 222.671 305.788 222.249C304.899 221.505 303.972 220.807 303.009 220.159Z" fill="#036672"/>
<path d="M334.738 217.825C334.409 217.563 334.016 217.392 333.6 217.329C333.392 217.304 333.183 217.355 333.011 217.474C332.839 217.592 332.716 217.77 332.666 217.973C332.665 218.262 332.764 218.544 332.945 218.77L333.714 219.972C333.81 220.096 333.868 220.247 333.879 220.404C333.85 220.803 333.309 220.883 332.905 220.831C330.4 220.513 327.901 219.732 325.401 220.068C325.21 220.072 325.025 220.144 324.883 220.273C324.809 220.382 324.775 220.513 324.787 220.643C324.798 220.774 324.854 220.897 324.946 220.991C325.134 221.173 325.365 221.304 325.618 221.372C327.017 221.885 328.454 222.289 329.916 222.58C329.751 222.99 329.21 223.058 328.778 223.075C327.568 223.125 326.363 223.264 325.174 223.491C324.496 223.616 323.665 223.952 323.659 224.63C323.678 224.854 323.767 225.067 323.913 225.239C324.059 225.41 324.255 225.532 324.473 225.587C324.914 225.69 325.37 225.705 325.817 225.632C327.384 225.501 328.961 225.541 330.52 225.752C328.836 225.945 327.238 226.595 325.897 227.631C325.772 227.714 325.669 227.826 325.595 227.956C325.547 228.13 325.57 228.316 325.659 228.474C325.747 228.631 325.894 228.748 326.067 228.798C326.427 228.877 326.8 228.857 327.149 228.741C328.705 228.377 330.294 228.171 331.892 228.126C330.929 228.57 330.032 229.145 329.227 229.835C328.983 230.023 328.788 230.267 328.658 230.547C328.593 230.688 328.573 230.846 328.599 231C328.626 231.153 328.698 231.295 328.806 231.407C328.952 231.496 329.118 231.55 329.289 231.564C329.46 231.578 329.632 231.551 329.791 231.486C331.681 230.974 333.355 229.744 335.296 229.459C336.31 229.305 337.483 229.368 338.189 228.622C338.49 228.253 338.701 227.818 338.803 227.352C339.231 225.888 340.096 222.796 339.213 221.367C338.866 220.797 338.024 220.336 337.505 219.915C336.62 219.17 335.697 218.472 334.738 217.825Z" fill="#036672"/>
<path d="M303.009 220.159C302.68 219.898 302.287 219.727 301.871 219.664C301.663 219.638 301.454 219.69 301.282 219.808C301.11 219.927 300.987 220.105 300.937 220.308C300.936 220.597 301.035 220.879 301.216 221.105L301.985 222.306C302.081 222.431 302.139 222.582 302.15 222.739C302.15 223.138 301.58 223.218 301.176 223.166C298.671 222.847 296.172 222.073 293.672 222.403C293.48 222.409 293.296 222.483 293.154 222.614C293.082 222.722 293.049 222.851 293.06 222.981C293.071 223.11 293.127 223.232 293.217 223.326C293.405 223.507 293.636 223.639 293.889 223.707C295.288 224.22 296.725 224.624 298.187 224.915C298.022 225.325 297.481 225.399 297.049 225.416C295.839 225.461 294.634 225.598 293.445 225.826C292.767 225.951 291.936 226.293 291.93 226.965C291.949 227.189 292.038 227.402 292.184 227.573C292.33 227.745 292.526 227.867 292.744 227.921C293.185 228.025 293.641 228.04 294.088 227.967C295.655 227.836 297.232 227.876 298.791 228.087C297.106 228.28 295.505 228.93 294.162 229.966C294.039 230.052 293.938 230.165 293.866 230.296C293.712 230.626 294.003 231.025 294.35 231.139C294.71 231.213 295.083 231.191 295.432 231.076C296.988 230.715 298.577 230.509 300.174 230.461C299.211 230.905 298.315 231.48 297.51 232.17C297.266 232.358 297.07 232.602 296.94 232.882C296.874 233.023 296.853 233.181 296.879 233.335C296.906 233.489 296.979 233.63 297.088 233.741C297.234 233.831 297.398 233.885 297.568 233.899C297.739 233.913 297.91 233.886 298.068 233.821C299.964 233.309 301.637 232.079 303.579 231.794C304.592 231.64 305.765 231.703 306.471 230.957C306.773 230.588 306.984 230.153 307.086 229.687C307.507 228.223 308.378 225.131 307.496 223.707C307.149 223.138 306.306 222.671 305.788 222.249C304.899 221.505 303.972 220.807 303.009 220.159Z" fill="url(#paint21_linear_134_5154)"/>
<path d="M334.738 217.825C334.409 217.563 334.016 217.392 333.6 217.329C333.392 217.304 333.183 217.355 333.011 217.474C332.839 217.592 332.716 217.77 332.666 217.973C332.665 218.262 332.764 218.544 332.945 218.77L333.714 219.972C333.81 220.096 333.868 220.247 333.879 220.404C333.85 220.803 333.309 220.883 332.905 220.831C330.4 220.513 327.901 219.732 325.401 220.068C325.21 220.072 325.025 220.144 324.883 220.273C324.809 220.382 324.775 220.513 324.787 220.643C324.798 220.774 324.854 220.897 324.946 220.991C325.134 221.173 325.365 221.304 325.618 221.372C327.017 221.885 328.454 222.289 329.916 222.58C329.751 222.99 329.21 223.058 328.778 223.075C327.568 223.125 326.363 223.264 325.174 223.491C324.496 223.616 323.665 223.952 323.659 224.63C323.678 224.854 323.767 225.067 323.913 225.239C324.059 225.41 324.255 225.532 324.473 225.587C324.914 225.69 325.37 225.705 325.817 225.632C327.384 225.501 328.961 225.541 330.52 225.752C328.836 225.945 327.238 226.595 325.897 227.631C325.772 227.714 325.669 227.826 325.595 227.956C325.547 228.13 325.57 228.316 325.659 228.474C325.747 228.631 325.894 228.748 326.067 228.798C326.427 228.877 326.8 228.857 327.149 228.741C328.705 228.377 330.294 228.171 331.892 228.126C330.929 228.57 330.032 229.145 329.227 229.835C328.983 230.023 328.788 230.267 328.658 230.547C328.593 230.688 328.573 230.846 328.599 231C328.626 231.153 328.698 231.295 328.806 231.407C328.952 231.496 329.118 231.55 329.289 231.564C329.46 231.578 329.632 231.551 329.791 231.486C331.681 230.974 333.355 229.744 335.296 229.459C336.31 229.305 337.483 229.368 338.189 228.622C338.49 228.253 338.701 227.818 338.803 227.352C339.231 225.888 340.096 222.796 339.213 221.367C338.866 220.797 338.024 220.336 337.505 219.915C336.62 219.17 335.697 218.472 334.738 217.825Z" fill="url(#paint22_linear_134_5154)"/>
<defs>
<linearGradient id="paint0_linear_134_5154" x1="40.5056" y1="318.457" x2="109.634" y2="318.457" gradientUnits="userSpaceOnUse">
<stop stop-color="#1E5645"/>
<stop offset="1" stop-color="#468181"/>
</linearGradient>
<linearGradient id="paint1_linear_134_5154" x1="179.566" y1="156.948" x2="-252.253" y2="176.898" gradientUnits="userSpaceOnUse">
<stop stop-opacity="0"/>
<stop offset="0.97" stop-color="#0C0C11"/>
<stop offset="0.98" stop-color="#312F43"/>
<stop offset="0.99" stop-color="#3F3D56"/>
</linearGradient>
<linearGradient id="paint2_linear_134_5154" x1="17.5047" y1="219.875" x2="213.114" y2="189.417" gradientUnits="userSpaceOnUse">
<stop stop-opacity="0"/>
<stop offset="0.97" stop-color="#0C0C11"/>
<stop offset="0.98" stop-color="#312F43"/>
<stop offset="0.99" stop-color="#3F3D56"/>
</linearGradient>
<linearGradient id="paint3_linear_134_5154" x1="36.4689" y1="211.27" x2="174.653" y2="202.954" gradientUnits="userSpaceOnUse">
<stop stop-opacity="0"/>
<stop offset="0.29" stop-opacity="0.29"/>
<stop offset="0.97" stop-color="#0C0C11"/>
<stop offset="0.98" stop-color="#312F43"/>
<stop offset="0.99" stop-color="#3F3D56"/>
</linearGradient>
<linearGradient id="paint4_linear_134_5154" x1="145.354" y1="295.273" x2="71.63" y2="193.218" gradientUnits="userSpaceOnUse">
<stop stop-opacity="0"/>
<stop offset="0.84" stop-opacity="0.66"/>
<stop offset="0.97"/>
</linearGradient>
<linearGradient id="paint5_linear_134_5154" x1="116.017" y1="282.916" x2="26.9384" y2="289.951" gradientUnits="userSpaceOnUse">
<stop stop-opacity="0"/>
<stop offset="0.87" stop-opacity="0.66"/>
<stop offset="1"/>
</linearGradient>
<linearGradient id="paint6_linear_134_5154" x1="223.53" y1="-13.1663" x2="228.258" y2="383.986" gradientUnits="userSpaceOnUse">
<stop stop-opacity="0"/>
<stop offset="0.5" stop-opacity="0.38"/>
<stop offset="0.97" stop-color="#0C0C11"/>
<stop offset="0.98" stop-color="#312F43"/>
<stop offset="0.99" stop-color="#3F3D56"/>
</linearGradient>
<linearGradient id="paint7_linear_134_5154" x1="74.7399" y1="36.9932" x2="74.8994" y2="55.5922" gradientUnits="userSpaceOnUse">
<stop stop-opacity="0"/>
<stop offset="0.5" stop-opacity="0.38"/>
<stop offset="0.97" stop-color="#0C0C11"/>
<stop offset="0.98" stop-color="#312F43"/>
<stop offset="0.99" stop-color="#3F3D56"/>
</linearGradient>
<linearGradient id="paint8_linear_134_5154" x1="86.5309" y1="36.8906" x2="86.6904" y2="55.4954" gradientUnits="userSpaceOnUse">
<stop stop-opacity="0"/>
<stop offset="0.5" stop-opacity="0.38"/>
<stop offset="0.97" stop-color="#0C0C11"/>
<stop offset="0.98" stop-color="#312F43"/>
<stop offset="0.99" stop-color="#3F3D56"/>
</linearGradient>
<linearGradient id="paint9_linear_134_5154" x1="98.3161" y1="36.7938" x2="98.4755" y2="55.3929" gradientUnits="userSpaceOnUse">
<stop stop-opacity="0"/>
<stop offset="0.5" stop-opacity="0.38"/>
<stop offset="0.97" stop-color="#0C0C11"/>
<stop offset="0.98" stop-color="#312F43"/>
<stop offset="0.99" stop-color="#3F3D56"/>
</linearGradient>
<linearGradient id="paint10_linear_134_5154" x1="240.155" y1="39.8292" x2="207.647" y2="246.176" gradientUnits="userSpaceOnUse">
<stop offset="0.01"/>
<stop offset="0.99" stop-opacity="0"/>
</linearGradient>
<linearGradient id="paint11_linear_134_5154" x1="221.418" y1="86.2699" x2="220.66" y2="134.698" gradientUnits="userSpaceOnUse">
<stop offset="0.01"/>
<stop offset="0.99" stop-opacity="0"/>
</linearGradient>
<linearGradient id="paint12_linear_134_5154" x1="313.491" y1="210.495" x2="382.647" y2="277.557" gradientUnits="userSpaceOnUse">
<stop offset="0.01"/>
<stop offset="0.15" stop-opacity="0.52"/>
<stop offset="0.99" stop-opacity="0"/>
</linearGradient>
<linearGradient id="paint13_linear_134_5154" x1="334.021" y1="281.577" x2="254.092" y2="213.824" gradientUnits="userSpaceOnUse">
<stop offset="0.01"/>
<stop offset="0.16" stop-opacity="0.52"/>
<stop offset="1" stop-opacity="0"/>
</linearGradient>
<linearGradient id="paint14_linear_134_5154" x1="337.312" y1="285.809" x2="457.531" y2="255.242" gradientUnits="userSpaceOnUse">
<stop offset="0.01"/>
<stop offset="0.15" stop-opacity="0.52"/>
<stop offset="0.99" stop-opacity="0"/>
</linearGradient>
<linearGradient id="paint15_linear_134_5154" x1="328.111" y1="236.464" x2="420.898" y2="176.359" gradientUnits="userSpaceOnUse">
<stop offset="0.01"/>
<stop offset="0.15" stop-opacity="0.52"/>
<stop offset="0.99" stop-opacity="0"/>
</linearGradient>
<linearGradient id="paint16_linear_134_5154" x1="339.544" y1="210.245" x2="422.585" y2="234.562" gradientUnits="userSpaceOnUse">
<stop offset="0.01"/>
<stop offset="0.15" stop-opacity="0.52"/>
<stop offset="0.99" stop-opacity="0"/>
</linearGradient>
<linearGradient id="paint17_linear_134_5154" x1="329.179" y1="182.243" x2="348.514" y2="187.225" gradientUnits="userSpaceOnUse">
<stop stop-color="#ECC4D7"/>
<stop offset="0.42" stop-color="#EFD4D1"/>
<stop offset="1" stop-color="#F2EAC9"/>
</linearGradient>
<linearGradient id="paint18_linear_134_5154" x1="327.217" y1="175.393" x2="390.947" y2="151.605" gradientUnits="userSpaceOnUse">
<stop offset="0.01"/>
<stop offset="0.03" stop-opacity="0.93"/>
<stop offset="0.51" stop-opacity="0.05"/>
<stop offset="0.58" stop-opacity="0.03"/>
<stop offset="0.99" stop-opacity="0"/>
</linearGradient>
<linearGradient id="paint19_linear_134_5154" x1="333.207" y1="181.948" x2="376.761" y2="179.028" gradientUnits="userSpaceOnUse">
<stop offset="0.01"/>
<stop offset="0.15" stop-opacity="0.52"/>
<stop offset="0.99" stop-opacity="0"/>
</linearGradient>
<linearGradient id="paint20_linear_134_5154" x1="334.522" y1="192.292" x2="355.381" y2="208.538" gradientUnits="userSpaceOnUse">
<stop stop-color="#ECC4D7"/>
<stop offset="0.42" stop-color="#EFD4D1"/>
<stop offset="1" stop-color="#F2EAC9"/>
</linearGradient>
<linearGradient id="paint21_linear_134_5154" x1="300.208" y1="216.634" x2="295.68" y2="359.744" gradientUnits="userSpaceOnUse">
<stop offset="0.01"/>
<stop offset="0.15" stop-opacity="0.52"/>
<stop offset="0.99" stop-opacity="0"/>
</linearGradient>
<linearGradient id="paint22_linear_134_5154" x1="331.852" y1="216.965" x2="327.323" y2="360.074" gradientUnits="userSpaceOnUse">
<stop offset="0.01"/>
<stop offset="0.15" stop-opacity="0.52"/>
<stop offset="0.99" stop-opacity="0"/>
</linearGradient>
</defs>
</svg>
