<svg viewBox="0 0 464 350" fill="none" xmlns="http://www.w3.org/2000/svg">
<path opacity="0.18" d="M85.1227 160.584C76.1075 176.149 66.9633 192.037 63.1616 209.625C59.3598 227.213 61.7381 247.093 73.6706 260.548C80.3896 268.122 89.4868 273.065 98.4259 277.848C140.14 300.244 183.125 323.049 230.146 328.543C256.379 331.587 282.958 329.111 308.178 321.273C335.786 312.661 363.014 295.724 373.605 268.797C378.666 255.899 379.515 241.828 382.192 228.268C388.847 194.511 406.749 158.749 391.758 127.782C375.356 93.8376 330.368 87.9163 292.708 86.5327C245.423 84.7739 196.791 82.7865 150.051 91.9381C112.719 99.2312 103.276 129.277 85.1227 160.584Z" fill="#036672"/>
<path d="M397.347 12.0067V212.228C397.348 213.803 397.04 215.363 396.439 216.819C395.838 218.275 394.957 219.598 393.845 220.713C392.733 221.828 391.413 222.713 389.959 223.317C388.506 223.921 386.947 224.233 385.373 224.235H49.6185C48.0469 224.238 46.4899 223.932 45.0364 223.334C43.583 222.736 42.2615 221.857 41.1475 220.747C40.0335 219.638 39.1487 218.319 38.5438 216.868C37.9388 215.416 37.6254 213.859 37.6216 212.286V12.0067C37.6231 8.8228 38.8876 5.76975 41.1371 3.5184C43.3866 1.26704 46.4372 0.0015535 49.6185 0L385.35 0C388.532 0 391.583 1.26499 393.833 3.51668C396.083 5.76837 397.347 8.82232 397.347 12.0067Z" fill="#036672"/>
<path opacity="0.18" d="M383.61 186.432H134.821C134.02 186.432 133.252 186.114 132.686 185.548C132.119 184.982 131.8 184.214 131.798 183.413C131.798 182.611 132.117 181.841 132.684 181.274C133.251 180.706 134.019 180.388 134.821 180.388H383.61C384.412 180.388 385.181 180.706 385.748 181.274C386.314 181.841 386.633 182.611 386.633 183.413C386.631 184.214 386.312 184.982 385.745 185.548C385.179 186.114 384.411 186.432 383.61 186.432Z" fill="white"/>
<path d="M410.105 330.407H327.234C324.821 330.407 325.735 339.26 323.819 338.069C323.427 337.823 317.961 331.855 317.58 331.568C314.652 329.275 314.722 321.883 314.722 317.878V177.667C314.721 176.023 315.044 174.394 315.672 172.875C316.3 171.355 317.221 169.974 318.382 168.811C319.544 167.647 320.923 166.724 322.441 166.094C323.958 165.464 325.585 165.14 327.228 165.139H410.105C418.728 165.467 421.2 171.476 421.311 172.08C421.423 172.684 426.841 182.352 426.841 182.997L422.618 317.878C422.619 319.523 422.295 321.152 421.667 322.672C421.039 324.192 420.117 325.574 418.955 326.737C417.793 327.901 416.413 328.823 414.895 329.453C413.377 330.083 411.749 330.407 410.105 330.407Z" fill="#25233A"/>
<path d="M416.719 177.867H333.877C326.963 177.867 321.359 183.476 321.359 190.395V330.606C321.359 337.526 326.963 343.135 333.877 343.135H416.719C423.633 343.135 429.237 337.526 429.237 330.606V190.395C429.237 183.476 423.633 177.867 416.719 177.867Z" fill="#036672"/>
<path d="M414.815 196.405H338.563C332.876 196.405 328.265 201.019 328.265 206.711V310.615C328.265 316.307 332.876 320.921 338.563 320.921H414.815C420.503 320.921 425.113 316.307 425.113 310.615V206.711C425.113 201.019 420.503 196.405 414.815 196.405Z" fill="url(#paint0_linear_134_5203)"/>
<path d="M397.347 12.0067V19.0419H37.6216V12.0067C37.6231 8.8228 38.8876 5.76975 41.1371 3.5184C43.3866 1.26704 46.4372 0.0015535 49.6185 0L385.35 0C388.532 0 391.583 1.26499 393.833 3.51668C396.083 5.76837 397.347 8.82232 397.347 12.0067Z" fill="url(#paint1_linear_134_5203)"/>
<path opacity="0.57" d="M306.128 34.9648H132.39V170.451H306.128V34.9648Z" fill="white"/>
<path d="M238.359 122.852C238.382 125.247 238.154 127.639 237.679 129.987C236.719 133.962 234.37 137.45 232.062 140.833C230.971 139.318 229.524 138.097 227.847 137.279C226.171 136.46 224.318 136.07 222.455 136.142C217.007 135.92 211.606 136.787 206.223 137.849C197.899 139.478 189.61 141.565 181.221 140.809C176.974 140.422 172.804 139.314 168.539 139.162C160.256 138.851 152.33 142.14 144.428 144.643C143.186 145.036 141.429 145.183 140.978 143.957C140.837 143.414 140.878 142.839 141.095 142.322C142.476 137.836 143.481 133.244 144.1 128.591C145.014 120.689 144.217 112.698 143.409 104.783C142.536 96.1475 141.651 87.506 140.427 78.9113C139.156 70.0235 137.533 60.7781 140.222 52.2128C140.873 49.8662 142.079 47.7107 143.737 45.9281C145.138 44.6261 146.735 43.5538 148.47 42.7505C151.778 40.9981 155.288 39.6554 158.92 38.7522C162.101 38.0901 165.325 37.661 168.568 37.4683L185.252 36.0671C189.563 35.7036 193.945 35.346 198.186 36.1843C202.773 37.1155 206.977 39.3981 210.259 42.7388C210.786 43.2723 211.354 43.8761 212.098 43.9523C212.719 43.9564 213.329 43.7836 213.855 43.454C218.84 41.0621 224.241 41.109 229.437 42.7212C234.311 44.2338 235.483 47.8041 235.664 52.7639C235.793 55.8594 235.856 58.9529 235.852 62.0445C235.852 71.6977 235.266 81.342 234.094 90.9239C233.409 96.4934 232.554 102.315 234.516 107.574C235.442 110.036 236.953 112.264 237.709 114.779C238.464 117.294 238.412 120.143 238.359 122.852Z" fill="#3F3D56"/>
<path d="M238.359 122.852C238.382 125.247 238.154 127.639 237.679 129.987C236.718 133.961 234.369 137.45 232.061 140.833C230.971 139.318 229.523 138.097 227.847 137.279C226.171 136.46 224.318 136.07 222.455 136.142C217.007 135.92 211.606 136.787 206.222 137.848L186.2 131.558L190.57 98.8325L209.058 56.2814C209.058 56.2814 228.681 46.4498 233.256 54.1474C234.129 55.6131 235.014 58.4447 235.851 62.0737C235.852 71.727 235.265 81.3713 234.094 90.9531C233.409 96.5226 232.553 102.344 234.516 107.603C235.441 110.065 236.953 112.293 237.708 114.808C238.464 117.323 238.411 120.143 238.359 122.852Z" fill="#25233A"/>
<path opacity="0.57" d="M123.211 34.9648H47.3223V107.011H123.211V34.9648Z" fill="white"/>
<path opacity="0.57" d="M123.211 115.348H47.3223V187.394H123.211V115.348Z" fill="white"/>
<path opacity="0.18" d="M389.082 51.1809H326.567C325.766 51.1793 324.999 50.8599 324.433 50.2928C323.867 49.7256 323.55 48.957 323.55 48.1557C323.553 47.3565 323.872 46.5909 324.437 46.0263C325.002 45.4617 325.768 45.1439 326.567 45.1423H389.082C389.882 45.1423 390.65 45.4602 391.217 46.0263C391.784 46.5924 392.103 47.3603 392.104 48.1616C392.103 48.9629 391.784 49.7308 391.217 50.2969C390.65 50.8629 389.882 51.1809 389.082 51.1809Z" fill="white"/>
<path opacity="0.18" d="M389.082 67.4204H326.567C325.766 67.4188 324.999 67.0994 324.433 66.5323C323.867 65.9651 323.55 65.1965 323.55 64.3952C323.553 63.5954 323.872 62.8293 324.437 62.2637C325.002 61.6982 325.767 61.3791 326.567 61.376H389.082C389.882 61.376 390.65 61.6939 391.217 62.2599C391.784 62.826 392.103 63.5939 392.104 64.3952C392.104 65.1975 391.786 65.967 391.219 66.5343C390.652 67.1016 389.883 67.4204 389.082 67.4204Z" fill="white"/>
<path opacity="0.18" d="M389.082 83.6247H326.567C325.766 83.6232 324.999 83.3038 324.433 82.7366C323.867 82.1694 323.55 81.4009 323.55 80.5996C323.553 79.7998 323.872 79.0336 324.437 78.4681C325.002 77.9025 325.767 77.5834 326.567 77.5803H389.082C389.882 77.5803 390.65 77.8982 391.217 78.4643C391.784 79.0303 392.103 79.7983 392.104 80.5996C392.104 81.4019 391.786 82.1714 391.219 82.7387C390.652 83.306 389.883 83.6247 389.082 83.6247Z" fill="white"/>
<path opacity="0.18" d="M389.082 99.8466H326.567C325.766 99.8451 324.999 99.5257 324.433 98.9585C323.867 98.3914 323.55 97.6228 323.55 96.8215C323.553 96.0217 323.872 95.2555 324.437 94.69C325.002 94.1244 325.767 93.8053 326.567 93.8022H389.082C389.882 93.8022 390.65 94.1202 391.217 94.6862C391.784 95.2523 392.103 96.0202 392.104 96.8215C392.104 97.6238 391.786 98.3933 391.219 98.9606C390.652 99.5279 389.883 99.8466 389.082 99.8466Z" fill="white"/>
<path opacity="0.18" d="M389.082 116.081H326.567C325.766 116.079 324.999 115.76 324.433 115.192C323.867 114.625 323.55 113.857 323.55 113.055C323.553 112.256 323.872 111.489 324.437 110.924C325.002 110.358 325.767 110.039 326.567 110.036H389.082C389.882 110.036 390.65 110.354 391.217 110.92C391.784 111.486 392.103 112.254 392.104 113.055C392.104 113.858 391.786 114.627 391.219 115.194C390.652 115.762 389.883 116.081 389.082 116.081Z" fill="white"/>
<path opacity="0.18" d="M389.082 132.291H326.567C325.766 132.289 324.999 131.97 324.433 131.403C323.867 130.835 323.55 130.067 323.55 129.266C323.553 128.466 323.872 127.7 324.437 127.134C325.002 126.569 325.767 126.249 326.567 126.246H389.082C389.882 126.246 390.65 126.564 391.217 127.13C391.784 127.696 392.103 128.464 392.104 129.266C392.104 130.068 391.786 130.837 391.219 131.405C390.652 131.972 389.883 132.291 389.082 132.291Z" fill="white"/>
<path d="M383.27 326.485H366.716C364.329 326.485 362.393 328.422 362.393 330.811V330.817C362.393 333.207 364.329 335.144 366.716 335.144H383.27C385.658 335.144 387.594 333.207 387.594 330.817V330.811C387.594 328.422 385.658 326.485 383.27 326.485Z" fill="#036672"/>
<path d="M383.27 326.485H366.716C364.329 326.485 362.393 328.422 362.393 330.811V330.817C362.393 333.207 364.329 335.144 366.716 335.144H383.27C385.658 335.144 387.594 333.207 387.594 330.817V330.811C387.594 328.422 385.658 326.485 383.27 326.485Z" fill="url(#paint2_linear_134_5203)"/>
<path d="M64.761 0C62.91 0 47.3222 0.545225 47.3222 19.0301V224.012C44.5915 223.476 42.1313 222.009 40.362 219.859C38.5926 217.71 37.624 215.013 37.6216 212.228V12.0067C37.6231 8.8228 38.8876 5.76975 41.1371 3.5184C43.3866 1.26704 46.4372 0.0015535 49.6185 0L64.761 0Z" fill="url(#paint3_linear_134_5203)"/>
<path d="M144.1 135.456L132.384 141.653V170.451H261.257C261.257 170.451 249.366 136.752 201.343 133.481C169.289 131.323 173.173 131.077 161.088 131.171C155.164 131.214 149.337 132.684 144.1 135.456Z" fill="#036672"/>
<path d="M136.854 170.451C136.854 170.451 140.093 145.904 166.078 142.251C192.064 138.599 223.28 146.132 227.756 148.53C250.648 160.771 249.922 170.451 249.922 170.451H136.854Z" fill="url(#paint4_linear_134_5203)"/>
<path d="M210.645 124.458C204.975 124.458 201.126 124.364 198.502 124.511C193.815 124.775 193.036 125.777 192.779 129.266C192.439 133.838 198.408 146.766 196.481 151.643C196.328 152.095 196.059 152.499 195.701 152.815C195.344 153.131 194.91 153.347 194.442 153.443C194.442 153.443 171.737 153.443 156.032 131.558C156.032 131.558 167.098 120.56 166.073 104.971C165.047 89.382 159.459 63.815 165.024 61.0654C170.589 58.3158 219.373 47.4875 226.696 67.1156C234.018 86.7438 226.526 124.505 210.645 124.458Z" fill="url(#paint5_linear_134_5203)"/>
<path d="M185.486 68.9682C183.435 74.2446 183.687 80.2362 183.283 85.9698C182.879 91.7035 181.444 97.9765 177.273 101.213C176.336 101.94 175.258 102.503 174.537 103.505C172.698 106.055 173.951 109.884 173.506 113.155C172.669 119.322 166.284 122.019 163.015 127.003C161.017 130.051 160.226 133.956 158.299 137.063C156.372 140.17 152.365 142.304 149.764 139.924C148.429 138.698 147.902 136.664 147.48 134.759C142.236 111.144 140.668 86.8598 142.829 62.7655C143.614 54.0653 145.599 44.1985 152.324 40.1064C154.978 38.4941 158.03 38.0369 161.011 37.603C178.204 35.1173 196.949 32.9833 211.694 43.4657C213.053 44.4271 214.412 45.5645 215.079 47.2236C218.541 55.8358 204.875 55.3375 201.325 56.2345C194.841 57.835 188.321 61.6868 185.486 68.9682Z" fill="#3F3D56"/>
<path d="M196.481 151.643C195.899 151.825 195.276 151.825 194.694 151.643C193.482 151.285 192.638 150.23 191.888 149.216C188.075 144.104 184.508 138.476 183.764 132.138C183.477 129.699 183.717 126.973 185.427 125.208C186.804 123.796 188.854 123.286 190.816 123.063C192.679 122.852 192.293 123.221 196.387 123.438C197.131 123.479 204.213 123.948 204.881 124.399C194.267 124.546 193.037 125.748 192.779 129.236C192.439 133.838 198.408 146.765 196.481 151.643Z" fill="url(#paint6_linear_134_5203)"/>
<path d="M249.922 170.451C249.922 170.451 258.234 154.539 263.395 153.449C268.556 152.358 270.225 148.255 273.799 147.416C277.372 146.578 277.776 149.257 278.532 155.337C279.287 161.416 273.886 170.456 273.886 170.456L249.922 170.451Z" fill="url(#paint7_linear_134_5203)"/>
<path d="M414.013 208.968H339.05C335.624 208.968 332.846 211.748 332.846 215.177V231.704C332.846 235.132 335.624 237.912 339.05 237.912H414.013C417.439 237.912 420.216 235.132 420.216 231.704V215.177C420.216 211.748 417.439 208.968 414.013 208.968Z" fill="#036672"/>
<path d="M411.956 244.601H353.214C352.143 244.601 351.275 245.47 351.275 246.542V247.245C351.275 248.317 352.143 249.186 353.214 249.186H411.956C413.027 249.186 413.895 248.317 413.895 247.245V246.542C413.895 245.47 413.027 244.601 411.956 244.601Z" fill="#036672"/>
<path d="M411.956 263.901H353.214C352.143 263.901 351.275 264.77 351.275 265.842V266.545C351.275 267.617 352.143 268.486 353.214 268.486H411.956C413.027 268.486 413.895 267.617 413.895 266.545V265.842C413.895 264.77 413.027 263.901 411.956 263.901Z" fill="#036672"/>
<path d="M411.956 283.201H353.214C352.143 283.201 351.275 284.07 351.275 285.141V285.845C351.275 286.917 352.143 287.786 353.214 287.786H411.956C413.027 287.786 413.895 286.917 413.895 285.845V285.141C413.895 284.07 413.027 283.201 411.956 283.201Z" fill="#036672"/>
<path d="M411.956 301.739H353.214C352.143 301.739 351.275 302.608 351.275 303.679V304.383C351.275 305.455 352.143 306.323 353.214 306.323H411.956C413.027 306.323 413.895 305.455 413.895 304.383V303.679C413.895 302.608 413.027 301.739 411.956 301.739Z" fill="#036672"/>
<defs>
<linearGradient id="paint0_linear_134_5203" x1="375.784" y1="133.956" x2="376.893" y2="286.777" gradientUnits="userSpaceOnUse">
<stop offset="0.02" stop-color="white" stop-opacity="0"/>
<stop offset="1" stop-color="white"/>
</linearGradient>
<linearGradient id="paint1_linear_134_5203" x1="216.638" y1="-75.6399" x2="217.923" y2="62.4899" gradientUnits="userSpaceOnUse">
<stop offset="0.01"/>
<stop offset="0.97" stop-opacity="0"/>
</linearGradient>
<linearGradient id="paint2_linear_134_5203" x1="375.087" y1="321.959" x2="374.923" y2="337.143" gradientUnits="userSpaceOnUse">
<stop offset="0.01"/>
<stop offset="0.97" stop-opacity="0"/>
</linearGradient>
<linearGradient id="paint3_linear_134_5203" x1="185.866" y1="110.493" x2="10.6227" y2="112.419" gradientUnits="userSpaceOnUse">
<stop offset="0.01"/>
<stop offset="0.97" stop-opacity="0"/>
</linearGradient>
<linearGradient id="paint4_linear_134_5203" x1="199.492" y1="246.096" x2="189.376" y2="120.707" gradientUnits="userSpaceOnUse">
<stop offset="0.01"/>
<stop offset="0.97" stop-opacity="0"/>
</linearGradient>
<linearGradient id="paint5_linear_134_5203" x1="206.89" y1="9.16924" x2="185.61" y2="146.344" gradientUnits="userSpaceOnUse">
<stop stop-color="#ECC4D7"/>
<stop offset="0.42" stop-color="#EFD4D1"/>
<stop offset="1" stop-color="#F2EAC9"/>
</linearGradient>
<linearGradient id="paint6_linear_134_5203" x1="187.237" y1="119.141" x2="214.919" y2="163.653" gradientUnits="userSpaceOnUse">
<stop stop-color="#ECC4D7"/>
<stop offset="0.42" stop-color="#EFD4D1"/>
<stop offset="1" stop-color="#F2EAC9"/>
</linearGradient>
<linearGradient id="paint7_linear_134_5203" x1="249.922" y1="158.86" x2="278.602" y2="158.86" gradientUnits="userSpaceOnUse">
<stop stop-color="#ECC4D7"/>
<stop offset="0.42" stop-color="#EFD4D1"/>
<stop offset="1" stop-color="#F2EAC9"/>
</linearGradient>
</defs>
</svg>
