<svg xmlns="http://www.w3.org/2000/svg" version="1.1" xmlns:xlink="http://www.w3.org/1999/xlink" xmlns:svgjs="http://svgjs.com/svgjs" width="96" height="96"><svg viewBox="0 0 96 96" fill="none" xmlns="http://www.w3.org/2000/svg">
<path fill-rule="evenodd" clip-rule="evenodd" d="M54.5066 20.0841C50.395 21.9572 46.7722 24.7163 43.8822 28.1176H28.1173C25.8989 28.1176 24.1006 26.3192 24.1006 24.1008C24.1006 21.8825 25.8989 20.0841 28.1173 20.0841H54.5066Z" fill="#014451"></path>
<path fill-rule="evenodd" clip-rule="evenodd" d="M38.9612 36.1511C37.9112 38.6754 37.1904 41.3711 36.8526 44.1845H4.01674C1.79835 44.1845 0 42.3862 0 40.1678C0 37.9494 1.79835 36.1511 4.01674 36.1511H38.9612Z" fill="#014451"></path>
<path fill-rule="evenodd" clip-rule="evenodd" d="M36.9426 52.218C37.3461 55.0387 38.1355 57.7349 39.2556 60.2515H16.067C13.8486 60.2515 12.0503 58.4531 12.0503 56.2348C12.0503 54.0164 13.8486 52.218 16.067 52.218H36.9426Z" fill="#014451"></path>
<path fill-rule="evenodd" clip-rule="evenodd" d="M44.4803 68.285C47.6534 71.8028 51.6341 74.578 56.1302 76.3184H34.3429C32.1245 76.3184 30.3262 74.5201 30.3262 72.3017C30.3262 70.0833 32.1245 68.285 34.3429 68.285H44.4803Z" fill="#014451"></path>
<path fill-rule="evenodd" clip-rule="evenodd" d="M43.8818 28.1176C41.8518 30.5068 40.1833 33.2128 38.961 36.151H32.937C35.1554 36.151 36.9538 34.3527 36.9538 32.1343C36.9538 29.9159 35.1554 28.1176 32.937 28.1176H43.8818Z" fill="#014451"></path>
<path fill-rule="evenodd" clip-rule="evenodd" d="M36.8526 44.1845C36.7079 45.3893 36.6335 46.6157 36.6335 47.8595C36.6335 49.3393 36.7388 50.7945 36.9425 52.218L26.9121 52.218C29.1305 52.218 30.9288 50.4196 30.9288 48.2012C30.9288 45.9829 29.1305 44.1845 26.9121 44.1845H36.8526Z" fill="#014451"></path>
<path fill-rule="evenodd" clip-rule="evenodd" d="M39.2553 60.2515C40.5707 63.2069 42.3422 65.9145 44.4803 68.2849L34.1421 68.2849C36.3605 68.2849 38.1588 66.4866 38.1588 64.2682C38.1588 62.0511 36.3626 60.2536 34.146 60.2515H39.2553Z" fill="#014451"></path>
<path d="M67.875 75.7068C83.2272 75.3587 95.3903 62.6312 95.0422 47.279C94.694 31.9269 81.9665 19.7638 66.6144 20.1119C51.2622 20.46 39.0991 33.1876 39.4472 48.5397C39.7954 63.8918 52.5229 76.055 67.875 75.7068Z" fill="#2C8A9F"></path>
<path d="M67.5818 71.308C80.5336 71.0143 90.795 60.2767 90.5013 47.3249C90.2076 34.3731 79.47 24.1117 66.5182 24.4054C53.5664 24.6991 43.305 35.4367 43.5987 48.3885C43.8924 61.3403 54.63 71.6017 67.5818 71.308Z" fill="url(#paint0_linear_303_6819)"></path>
<mask id="SvgjsMask1002" style="mask-type:alpha" maskUnits="userSpaceOnUse" x="39" y="20" width="57" height="56">
<path d="M67.8767 75.7074C83.229 75.3591 95.392 62.6312 95.0436 47.2789C94.6952 31.9267 81.9673 19.7636 66.6151 20.112C51.2628 20.4604 39.0998 33.1883 39.4482 48.5406C39.7966 63.8928 52.5245 76.0558 67.8767 75.7074Z" fill="white"></path>
</mask>
<g mask="url(#mask0_303_6819)">
<path d="M46.5911 28.2447L80.5036 75.1C80.5036 75.1 86.3677 71.2419 88.5583 65.6045L56.1856 21.875" fill="url(#paint1_linear_303_6819)"></path>
</g>
<path d="M50.7491 42.9064C50.7491 41.4965 51.1146 40.4347 51.8457 39.7211C52.5767 39.0075 53.447 38.6506 54.4565 38.6506C55.4835 38.6506 56.8759 38.8247 58.6339 39.1728C60.3919 39.5209 61.7148 39.7037 62.6025 39.7211C64.082 39.4426 65.4918 39.1032 66.8321 38.7029C66.9713 39.1554 67.041 39.7211 67.041 40.3999C67.041 41.8098 66.6319 42.8716 65.8139 43.5852C65.0132 44.2988 63.9862 44.6557 62.733 44.6557C62.4197 44.6557 62.002 44.6383 61.4798 44.6034C60.5225 49.6337 60.0438 52.4448 60.0438 53.0366C60.0438 54.7249 60.3049 55.9869 60.8271 56.8224C59.7827 57.6056 58.6949 57.9972 57.5635 57.9972C56.4321 57.9972 55.6227 57.6752 55.1354 57.0312C54.648 56.3698 54.4043 55.3951 54.4043 54.107C54.4043 52.8016 54.9091 49.3378 55.9186 43.7157C53.9518 43.9768 52.2982 44.2727 50.958 44.6034C50.8187 44.1683 50.7491 43.6026 50.7491 42.9064ZM66.7205 49.303C66.7205 48.0846 66.9816 46.8488 67.5038 45.5956C68.026 44.3249 68.7657 43.15 69.723 42.0709C70.6804 40.9917 71.9249 40.1127 73.4566 39.4339C75.0057 38.7377 76.5983 38.3895 78.2345 38.3895C79.8881 38.3895 81.1761 38.6941 82.0986 39.3034C83.0385 39.9126 83.5085 40.7567 83.5085 41.8359C83.5085 42.9151 83.1517 43.7593 82.438 44.3685C81.7418 44.9603 80.9411 45.2562 80.036 45.2562C79.1309 45.2562 78.3128 45.0647 77.5818 44.6818C76.8681 44.2814 76.2937 43.7157 75.8586 42.9847C74.9187 43.4372 74.1093 44.3249 73.4305 45.6478C72.7517 46.9706 72.4122 48.3022 72.4122 49.6424C72.4122 50.9653 72.6298 52.0183 73.065 52.8016C73.5001 53.5675 74.118 53.9504 74.9187 53.9504C75.7194 53.9504 76.4243 53.5413 77.0335 52.7233C77.6601 51.9052 77.9734 50.9218 77.9734 49.773C79.7314 49.773 80.9846 49.9122 81.7331 50.1907C82.4989 50.4692 82.8819 51.0697 82.8819 51.9922C82.8819 53.4369 82.0986 54.7946 80.5321 56.0652C78.9655 57.3358 76.9987 57.9711 74.6315 57.9711C72.2643 57.9711 70.3496 57.2401 68.8876 55.778C67.4429 54.3159 66.7205 52.1576 66.7205 49.303Z" fill="#2C8A9F"></path>
<defs>
<linearGradient id="SvgjsLinearGradient1001" x1="35.6955" y1="-14.5941" x2="133.458" y2="180.112" gradientUnits="userSpaceOnUse">
<stop stop-color="white" stop-opacity="0"></stop>
<stop offset="0.95" stop-color="white"></stop>
</linearGradient>
<linearGradient id="SvgjsLinearGradient1000" x1="31.964" y1="-30.6777" x2="162.477" y2="206.753" gradientUnits="userSpaceOnUse">
<stop stop-color="white" stop-opacity="0"></stop>
<stop offset="0.95" stop-color="white"></stop>
</linearGradient>
</defs>
</svg><style>@media (prefers-color-scheme: light) { :root { filter: none; } }
</style></svg>