<svg width="26" height="24" viewBox="0 0 25 24" fill="none" xmlns="http://www.w3.org/2000/svg">
<g clip-path="url(#clip0_118_4542)">
<path d="M12.8682 23.9856C19.4854 23.9856 24.8452 18.6203 24.8452 12.0048C24.8452 5.3892 19.4854 0.0239258 12.8682 0.0239258C6.25096 0.0239258 0.891113 5.3892 0.891113 12.0048C0.891113 18.6203 6.25555 23.9856 12.8682 23.9856Z" fill="#FF060A"/>
<path d="M19.6045 9.85395C18.9437 9.24078 18.0259 8.30664 17.2825 7.64557L17.2367 7.61682C17.1632 7.55934 17.0806 7.51143 16.9934 7.4779C15.1946 7.14257 6.82442 5.57611 6.66381 5.59527C6.61792 5.60006 6.57203 5.61922 6.53532 5.64317L6.49402 5.6767C6.44354 5.7294 6.40224 5.79167 6.37929 5.86353L6.37012 5.89227V6.05036V6.07431C7.31084 8.69946 11.0324 17.2935 11.7667 19.315C11.8126 19.4539 11.8952 19.7126 12.0512 19.727H12.0879C12.1705 19.727 12.5284 19.2528 12.5284 19.2528C12.5284 19.2528 18.9208 11.5019 19.5678 10.6779C19.6504 10.5773 19.7238 10.4671 19.7881 10.3522C19.8064 10.2611 19.7973 10.1701 19.7651 10.0839C19.733 9.99766 19.6734 9.91622 19.6045 9.85395ZM14.1621 10.7593L16.8879 8.49826L18.4894 9.97371L14.1621 10.7593ZM13.102 10.6108L8.40759 6.75934L16.0068 8.16293L13.102 10.6108ZM13.5242 11.6168L18.3288 10.8408L12.8359 17.4659L13.5242 11.6168ZM7.76973 7.14736L12.712 11.339L11.9961 17.4707L7.76973 7.14736Z" fill="white"/>
</g>
<defs>
<clipPath id="clip0_118_4542">
<rect width="24" height="24" fill="white" transform="translate(0.854492)"/>
</clipPath>
</defs>
</svg>
